<svg xmlns="http://www.w3.org/2000/svg" xmlns:xlink="http://www.w3.org/1999/xlink" viewBox="0 0 468.23 386.9"><defs><mask id="a" x="398.29" y="116.88" width="7.84" height="7.83" maskUnits="userSpaceOnUse"><polygon points="398.29 116.89 406.13 116.89 406.13 124.72 398.29 124.72 398.29 116.89" style="fill:#fff;fill-rule:evenodd"/></mask></defs><path d="M282.94,271.8c82.74-44,133.2-110.88,112.69-149.43s-104.21-34.16-186.95,9.82S75.49,243.08,96,281.63,200.2,315.78,282.94,271.8Z" style="fill:none;stroke:#291424;stroke-linecap:round;stroke-linejoin:round;stroke-width:2.9999999394427013px;stroke-dasharray:3,8"/><path d="M295.65,108.3C184.58,49.26,72.23,43.36,44.71,95.11S84.9,236.67,196,295.7s223.42,64.94,251,13.19S406.72,167.33,295.65,108.3Z" style="fill:none;stroke:#291424;stroke-linecap:round;stroke-width:2.9999999394427013px;stroke-dasharray:4,8"/><path d="M443,292.81l21.1,15.33a10,10,0,0,1,3.64,11.18l-8.06,24.8a10,10,0,0,1-9.51,6.91h-26.1a10,10,0,0,1-9.51-6.91l-8.06-24.8a10,10,0,0,1,3.63-11.18l21.11-15.33A10,10,0,0,1,443,292.81Z" style="fill:#c4aa60;fill-rule:evenodd"/><ellipse cx="391.52" cy="111.54" rx="33.84" ry="33.83" style="fill:#fff;stroke:#c4aa60;stroke-width:2px"/><path d="M391.81,96.65l-.23.08L386.24,99a.47.47,0,0,0-.26.26q-1.11,2.68-2.17,5.39a.58.58,0,0,0,0,.43c.74,1.77,1.49,3.52,2.25,5.28a.75.75,0,0,0,.33.33c1.77.72,3.53,1.43,5.31,2.12a.77.77,0,0,0,.56,0c1.73-.73,3.47-1.46,5.19-2.21a.8.8,0,0,0,.37-.38q1.08-2.64,2.13-5.29a.69.69,0,0,0,0-.47c-.73-1.74-1.48-3.47-2.22-5.21a.69.69,0,0,0-.43-.42l-5.21-2.08-.28-.11ZM392,94.8l4.3,1.75,2.29.92a.86.86,0,0,1,.53.51c.9,2.12,1.81,4.23,2.7,6.35a1,1,0,0,1,0,.7c-.85,2.16-1.71,4.32-2.6,6.47a.9.9,0,0,1-.45.45q-3.19,1.39-6.42,2.74a1,1,0,0,1-.64,0q-3.26-1.29-6.51-2.61a1,1,0,0,1-.45-.45c-.92-2.12-1.82-4.25-2.74-6.37a.87.87,0,0,1,0-.74c.86-2.13,1.71-4.27,2.59-6.4a1,1,0,0,1,.52-.51c2.11-.92,4.23-1.82,6.35-2.73a1.51,1.51,0,0,0,.18-.09Z" style="fill:#c4aa60;fill-rule:evenodd"/><path d="M393.46,124.72a12,12,0,0,1-1.47-.46,3.75,3.75,0,0,1-2.19-4.11,4,4,0,0,1,3.58-3.22,4.19,4.19,0,0,1,4.2,1.72l-1.52.77a2.46,2.46,0,0,0-4.44,1.21,2.21,2.21,0,0,0,1.11,2.2,2.7,2.7,0,0,0,2.56.09c.32-.13.5-.31.43-.66a2.79,2.79,0,0,1,0-.41h-2.31v-1.5h4.12c0,.11,0,.23,0,.34,0,.75,0,1.51,0,2.26a.7.7,0,0,1-.28.61,4.63,4.63,0,0,1-2.39,1.1,1.55,1.55,0,0,0-.23.06Z" style="fill:#c4aa60;fill-rule:evenodd"/><g style="mask:url(#a)"><path d="M404.4,120.78a2.2,2.2,0,0,0-3.27-2.1A2.29,2.29,0,0,0,400,121a2.19,2.19,0,0,0,3.06,2,2.28,2.28,0,0,0,1.33-2.24Zm-2.59,3.94a8.79,8.79,0,0,1-1.38-.4,3.66,3.66,0,0,1-2.14-3.56,3.73,3.73,0,0,1,2.57-3.66,4,4,0,0,1,4.47,1.27,3.93,3.93,0,0,1-2.54,6.3.39.39,0,0,0-.14,0Z" style="fill:#c4aa60;fill-rule:evenodd"/></g><path d="M385.07,120.37c.62,0,1.24,0,1.84,0a.88.88,0,0,0,.81-1,.88.88,0,0,0-.83-.91c-.6,0-1.2,0-1.82,0Zm2.79,1.38,1.88,3h-1.95c-.07,0-.15-.11-.2-.19-.45-.73-.91-1.46-1.33-2.21a.59.59,0,0,0-.66-.35,4.84,4.84,0,0,1-.54,0v2.74h-1.73v-7.77l.13,0c1.21,0,2.42-.06,3.62,0a2.5,2.5,0,0,1,2.06,3.87,2.4,2.4,0,0,1-1.28,1Z" style="fill:#c4aa60;fill-rule:evenodd"/><path d="M376.91,116.88h5.7c0,.49,0,1,0,1.45,0,0-.2.11-.3.11h-3.62v1.32c0,.24.19.18.32.18h3.51v1.57h-2.4c-.4,0-.8,0-1.2,0-.08,0-.22.1-.22.15,0,.49,0,1,0,1.48h3.91v1.56h-5.68Z" style="fill:#c4aa60;fill-rule:evenodd"/><path d="M388.32,108.34c0-.51,0-1,0-1.49a.55.55,0,0,1,.18-.3l2.34-2.57-.44-.45-1.9-2a.57.57,0,0,1-.17-.3c0-.48,0-1,0-1.47h6.38v1.75H391l2.33,2.42-2.41,2.62h3.83v1.76Z" style="fill:#c4aa60;fill-rule:evenodd"/><ellipse cx="53.08" cy="172.8" rx="33.84" ry="33.83" style="fill:#fff;stroke:#c4aa60;stroke-width:2px"/><path d="M69.6,174.24a1.83,1.83,0,0,0,0-.47,1.51,1.51,0,0,0-1.08-1.23,1.42,1.42,0,0,0-1.55.45,1.89,1.89,0,0,0-.42,1.45,1.55,1.55,0,0,0,2.19,1.41,1.68,1.68,0,0,0,.91-1.61m-2.4,3.11a3.07,3.07,0,0,1-2.31-2.53,3.15,3.15,0,0,1,2.36-3.71,3.26,3.26,0,0,1,2.82.59,3,3,0,0,1,1.17,2.35,3.15,3.15,0,0,1-.88,2.46,3,3,0,0,1-1.89.91,11.58,11.58,0,0,1-1.27-.07" style="fill:#c4aa60;fill-rule:evenodd"/><path d="M75.13,177.41a4.26,4.26,0,0,1-1.67-.57c-.08-.05-.09-.09,0-.18l.45-1.08c0-.09.06-.09.14,0a3.34,3.34,0,0,0,2.17.52,1,1,0,0,0,.34-.09.42.42,0,0,0,.25-.38.4.4,0,0,0-.25-.38,2.37,2.37,0,0,0-.58-.21c-.44-.12-.88-.2-1.3-.36a2.19,2.19,0,0,1-.58-.32,1.74,1.74,0,0,1-.46-2,1.89,1.89,0,0,1,1.1-1.08,3.56,3.56,0,0,1,1.58-.23,4.15,4.15,0,0,1,1.75.47c.09,0,.11.08.07.19q-.23.54-.42,1.08c0,.08-.06.09-.13.05a3.07,3.07,0,0,0-1.7-.42,1.59,1.59,0,0,0-.38.07.59.59,0,0,0-.22.14.41.41,0,0,0,.08.69,3.05,3.05,0,0,0,.74.24,10,10,0,0,1,1.19.33,2,2,0,0,1,.73.49,1.32,1.32,0,0,1,.35.67s0,.1,0,.14v.59s0,.07,0,.1a1.74,1.74,0,0,1-.61,1,2.57,2.57,0,0,1-1.13.51,9.54,9.54,0,0,1-1.46,0" style="fill:#c4aa60;fill-rule:evenodd"/><path d="M28.51,173.45c0-1.86,0-4,0-5.86,0-.11,0-.12.14-.12l2,0v6h-2s-.07,0-.1,0Z" style="fill:#dfc57a;fill-rule:evenodd"/><path d="M36.29,167.58c1.37,1.26,2.75,2.56,4.17,3.74l.08.1h-.26c-.55,0-1.09.31-1.63.31l-.14-.15c-.58-.65-1.8-1.31-2.39-2s-1.13-1.35-1.74-2c0,0,0-.09.06-.09h1.62A.84.84,0,0,1,36.29,167.58Z" style="fill:#c4aa60;fill-rule:evenodd"/><path d="M30.65,167.45l.9.9,2.86,2.87s.05.08.1.08a.76.76,0,0,0,.08.11c.61.6,1.21,1.21,1.81,1.82,0,0,0,.06.09.05v-3.67c0-.05,0-.1,0-.15l1.82,1.83.14.14v.17c0,1.94,0,3.89,0,5.83-.31-.27-.58-.57-.87-.86l-2.91-2.92-.1-.09-.92-.95-1-1s0-.07-.08,0,0,.06,0,.09v3.56a.3.3,0,0,1,0,.16l-2-2v-5.81a1,1,0,0,1,0-.17" style="fill:#fff;fill-rule:evenodd"/><path d="M51.41,173.83c0,.24,0,.48,0,.72s0,.12.11.11h.64a1.6,1.6,0,0,0,.49,0,.69.69,0,0,0,.49-.42.81.81,0,0,0-.62-1.17c-.35-.05-.7,0-1.05,0-.07,0-.06,0-.06.09v.75m3.45,3.59c-.45,0-.88,0-1.3,0a.5.5,0,0,1-.54-.29c-.22-.39-.48-.76-.73-1.14a.16.16,0,0,0-.14-.09H51.5c-.07,0-.09,0-.09.1v1.31c0,.09,0,.11-.11.11H50c-.07,0-.1,0-.09-.1v-5.49c0-.07,0-.1.09-.1h2.52a2.78,2.78,0,0,1,1.16.27,2,2,0,0,1,1.1,1.94,1.89,1.89,0,0,1-1,1.65c-.08,0-.05.07,0,.12l1,1.59.07.12" style="fill:#c4aa60;fill-rule:evenodd"/><path d="M42.75,174.57v-2.72c0-.1,0-.12.14-.12h4.6c.11,0,.14,0,.13.12v1c0,.09,0,.12-.12.12H44.63c-.12,0-.15,0-.14.14s0,.46,0,.69,0,.13.15.13h2.48c.09,0,.13,0,.13.11q0,.5,0,1c0,.09,0,.11-.12.11H44.62c-.11,0-.13,0-.13.12,0,.27,0,.53,0,.8,0,.1,0,.12.14.12h3c.11,0,.14,0,.14.13,0,.34,0,.69,0,1,0,.07,0,.1-.11.1-1.59,0-3.17,0-4.76,0-.1,0-.12,0-.12-.12v-2.74" style="fill:#c4aa60;fill-rule:evenodd"/><path d="M60.26,175.43l1-2.28c.19-.44.38-.88.56-1.32a.14.14,0,0,1,.15-.1h1.38c.08,0,.12,0,.07.1-.78,1.83-1.57,3.66-2.35,5.5a.14.14,0,0,1-.15.1c-.46,0-.93,0-1.39,0a.13.13,0,0,1-.13-.09c-.78-1.84-1.57-3.67-2.35-5.51,0-.08,0-.1.07-.1h1.53a.12.12,0,0,1,.14.09c.48,1.16,1,2.32,1.45,3.48l0,.13" style="fill:#c4aa60;fill-rule:evenodd"/><path d="M38.48,171.59v-.16h2s0,.07,0,.11v5.77c0,.09,0,.13-.09.13h-2Z" style="fill:#dfc57a;fill-rule:evenodd"/><path d="M32.61,175.43c.69.68,1.46,1.18,2,1.86,0,0,0,.07.08.07s0,0-.06,0l-2.14,0a.14.14,0,0,1-.11,0c-1.22-1.4-2.69-2.49-3.92-3.89,0,0,.06,0,.09,0h2C31.37,174.16,31.93,174.75,32.61,175.43Z" style="fill:#c4aa60;fill-rule:evenodd"/><path d="M34.64,177.3l-2-1.89s0-.1,0-.15V171.7s0-.08,0-.09.06,0,.08,0c.34.31.69.69,1,1s.66.69,1,1c0,.6,0,1.09,0,1.69v2C34.69,177.36,34.67,177.32,34.64,177.3Z" style="fill:#dfc57a;fill-rule:evenodd"/><path d="M36.49,169.61v3.67a.11.11,0,0,1-.09-.05c-.65-.6-1.27-1.31-1.91-1.91a.28.28,0,0,1-.09-.1c0-1.21,0-2.36,0-3.56a.32.32,0,0,1,0-.14s.07,0,.1,0l2,1.89S36.49,169.56,36.49,169.61Z" style="fill:#dfc57a;fill-rule:evenodd"/><circle cx="371.57" cy="60.26" r="3.92" style="fill:#c4aa60"/><circle cx="229.07" cy="374.36" r="3.92" style="fill:#fff"/><ellipse cx="217.67" cy="370.09" rx="15.32" ry="15.31" style="fill:none;stroke:#c4aa60;stroke-width:3px"/><circle cx="11.4" cy="9.33" r="7.84" style="fill:none;stroke:#c4aa60;stroke-width:3px"/><circle cx="446.03" cy="17.17" r="7.84" style="fill:none;stroke:#c4aa60;stroke-width:3px"/><circle cx="185.25" cy="144.66" r="5.7" style="fill:#10b37d"/><circle cx="3.92" cy="145.02" r="3.92" style="fill:#c4aa60"/><ellipse cx="246.17" cy="202" rx="33.84" ry="33.83" style="fill:#c4aa60"/><path d="M255.45,208c-5.66,0-8.09-2.77-10.24-5.21l-.14-.15c-1.67-1.9-3.26-3.71-6.43-4.26a2.51,2.51,0,0,1-2.09-2.47c5.66,0,8.1,2.77,10.25,5.21l.13.15c1.67,1.9,3.27,3.71,6.43,4.26a2.5,2.5,0,0,1,2.09,2.47" style="fill:#fff;fill-rule:evenodd"/><path d="M236.55,208c5.66,0,8.1-2.77,10.25-5.21l.13-.15c1.67-1.9,3.27-3.71,6.43-4.26a2.5,2.5,0,0,0,2.09-2.47c-5.66,0-8.09,2.77-10.24,5.21l-.14.15c-1.67,1.9-3.26,3.71-6.43,4.26a2.51,2.51,0,0,0-2.09,2.47" style="fill:#fff;fill-rule:evenodd"/></svg>