<svg xmlns="http://www.w3.org/2000/svg" viewBox="0 0 512 512"><path d="M512,420.34c-153.49,0-219.39-75.39-277.69-141.56l-3.53-4.34C185.49,222.92,142.37,173,56.68,158.64A68.05,68.05,0,0,1,0,91.66c153.22,0,219.39,75.12,277.42,141.56l3.8,4.34c45.29,51.52,88.41,100.61,174.1,115.52A68.35,68.35,0,0,1,512,420.34" style="fill:#a18e00;fill-rule:evenodd"/><path d="M0,420.34c153.22,0,219.39-75.39,277.42-141.56l3.8-4.34c44.2-51.52,88.41-101.42,174.1-115.8a68.05,68.05,0,0,0,56.68-67c-153.49,0-219.39,75.12-277.69,141.56l-3.53,4.34c-45.29,51.52-88.41,100.61-174.1,115.52A68.35,68.35,0,0,0,0,420.34" style="fill:#a18e00;fill-rule:evenodd"/></svg>
