<?xml version="1.0" encoding="UTF-8"?>
<svg width="40px" height="40px" viewBox="0 0 40 40" version="1.1" xmlns="http://www.w3.org/2000/svg" xmlns:xlink="http://www.w3.org/1999/xlink">
    <title>Custom Preset</title>
    <g id="Custom-Preset" stroke="none" stroke-width="1" fill="none" fill-rule="evenodd">
        <g id="IO_Favicon_V2" transform="translate(5.000000, 6.000000)">
            <polygon id="Fill-27_1_" fill="#EC1C24" points="0 27.4 3.3 27.4 3.3 1.77635684e-15 0 1.77635684e-15"></polygon>
            <path d="M27.6,23 L27.6,4.3 C27.6,4 27.6,3.7 27.6,3.5 C27.6,3.3 27.4,3.2 27.1,3 C26.9,2.8 26.6,2.7 26.6,2.7 C26.4,2.7 26.1,2.7 25.6,2.7 L14.1,2.7 C13.6,2.7 13.3,2.7 13.1,2.7 C12.9,2.7 12.8,2.9 12.6,3 C12.4,3.2 12.3,3.3 12.1,3.5 C12.1,3.7 12.1,3.8 12.1,4.3 L12.1,22.9 C12.1,23.2 12.1,23.5 12.1,23.7 C12.1,23.9 12.3,24 12.6,24.2 C12.8,24.4 13.1,24.5 13.1,24.5 C13.3,24.5 13.6,24.5 14.1,24.5 L25.6,24.5 C26.1,24.5 26.4,24.5 26.6,24.5 C26.8,24.5 26.9,24.3 27.1,24.2 C27.3,24 27.4,23.9 27.6,23.7 C27.6,23.7 27.6,23.3 27.6,23 M12.8,5.32907052e-15 L27,5.32907052e-15 C27.6,5.32907052e-15 28.3,0.3 28.9,0.8 L29.9,1.6 C30.5,2.1 30.9,2.7 30.9,3.5 L30.9,23.9 C30.9,24.7 30.6,25.4 29.9,25.8 L28.9,26.6 C28.3,27.1 27.6,27.4 27,27.4 L12.8,27.4 C12.2,27.4 11.5,27.1 10.9,26.6 L9.9,25.8 C9.3,25.3 8.9,24.7 8.9,23.9 L8.9,3.4 C8.9,2.6 9.2,1.9 9.9,1.5 L10.9,0.7 C11.5,0.2 12.2,5.32907052e-15 12.8,5.32907052e-15" id="Fill-34_1_" fill="#000000" fill-rule="nonzero"></path>
        </g>
    </g>
</svg>