<svg xmlns="http://www.w3.org/2000/svg" viewBox="0 0 252.37 166.11"><path d="M191.17,1.5h0a59.84,59.84,0,0,0-59.7,59.62V105a59.7,59.7,0,0,0,119.4,0V61.12A59.83,59.83,0,0,0,191.17,1.5Z" style="fill:none;stroke:#c4aa60;stroke-linecap:round;stroke-width:3px;stroke-dasharray:6,8"/><path d="M61.2,1.5h0a59.83,59.83,0,0,1,59.7,59.62V105A59.7,59.7,0,0,1,1.5,105V61.12A59.84,59.84,0,0,1,61.2,1.5Z" style="fill:none;stroke:#c4aa60;stroke-linecap:round;stroke-width:3px;stroke-dasharray:6,8"/><path d="M126.19,164.61h0A59.83,59.83,0,0,1,66.49,105V61.12a59.7,59.7,0,0,1,119.4,0V105A59.84,59.84,0,0,1,126.19,164.61Z" style="fill:none;stroke:#c4aa60;stroke-linecap:round;stroke-width:3px;stroke-dasharray:6,8"/><path d="M142.64,79.93c0,7.16-6.47,14.71-8,19.14-2.19,6.34,1,11.52-8.47,11.52s-6.27-5.17-8.46-11.52c-1.52-4.42-8-12-8-19.14a16.45,16.45,0,0,1,32.9,0" style="fill:#474a46;fill-rule:evenodd"/><path d="M142.64,79.93c0,7.16-6.47,14.71-8,19.14-2.19,6.34,1,11.52-8.47,11.52s-6.27-5.17-8.46-11.52c-1.52-4.42-8-12-8-19.14a16.45,16.45,0,0,1,32.9,0Z" style="fill:none;stroke:#fff;stroke-width:2.2300000190734863px"/><path d="M117.7,98a53,53,0,0,0,8.9.7,54.46,54.46,0,0,0,8.07-.56h0" style="fill:none;stroke:#fff;stroke-width:2.2300000190734863px"/><path d="M118.94,102.05a38.89,38.89,0,0,0,7.6.7,39.72,39.72,0,0,0,6.89-.57h0" style="fill:none;stroke:#fff;stroke-width:2.2300000190734863px"/><path d="M119.42,106.08a34,34,0,0,0,7.09.7,34.73,34.73,0,0,0,6.44-.57h0" style="fill:none;stroke:#fff;stroke-width:2.2300000190734863px"/><polyline points="116.68 79.78 121.36 81.7 126.04 79.78 130.73 81.7 135.42 79.78" style="fill:none;stroke:#c4aa60;stroke-width:2.2300000190734863px"/><line x1="74.02" y1="78.82" x2="74.02" y2="86.36" style="fill:none"/><line x1="74.02" y1="78.82" x2="74.02" y2="86.36" style="fill:none;stroke:#fff;stroke-linecap:round;stroke-width:2.2300000190734863px"/><path d="M69.49,79.44v14c0,3.27-10.17,5.92-22.72,5.92s-22.72-2.65-22.72-5.92v-14" style="fill:#474a46;fill-rule:evenodd"/><path d="M69.49,79.44v14c0,3.27-10.17,5.92-22.72,5.92s-22.72-2.65-22.72-5.92v-14" style="fill:none;stroke:#fff;stroke-linecap:round;stroke-width:2.2300000190734863px"/><polygon points="46.77 85.43 8.13 75.48 46.77 65.52 85.41 75.48 46.77 85.43" style="fill:#474a46;fill-rule:evenodd"/><polygon points="46.77 85.43 8.13 75.48 46.77 65.52 85.41 75.48 46.77 85.43" style="fill:none;stroke:#fff;stroke-linecap:round;stroke-linejoin:round;stroke-width:2.2300000190734863px"/><path d="M217.19,85.23a19.07,19.07,0,1,0-19.07,19,19.06,19.06,0,0,0,19.07-19" style="fill:#474a46;fill-rule:evenodd"/><path d="M217,85.23a19.07,19.07,0,1,0-19.07,19A19.06,19.06,0,0,0,217,85.23Z" style="fill:none;stroke:#fff;stroke-width:2.2300000190734863px"/><g style="isolation:isolate"><g style="isolation:isolate"><path d="M196,90v-.58c0-2.33.49-3.35,3.5-5.75,1.25-1,1.86-1.76,1.86-3.16a2.62,2.62,0,0,0-3-2.82c-2.26,0-3.51,1.28-3.55,4.34l-3.38-.58c.2-4.52,2.66-6.89,6.95-6.89,4,0,6.52,2.06,6.52,5.58,0,2.69-1.29,4-3.28,5.48s-2.35,2.29-2.35,3.8V90Zm-.64,4.17a2.43,2.43,0,1,1,2.43,2.42A2.44,2.44,0,0,1,195.4,94.17Z" style="fill:#fff"/></g></g></svg>