<svg xmlns="http://www.w3.org/2000/svg" viewBox="0 0 632.35 321.78"><defs><style>.a,.b,.e,.f,.g,.h,.i{fill:none;}.a,.b{stroke:#e1e3e1;stroke-width:4px;}.a,.b,.e,.f,.h{stroke-miterlimit:10;}.a{stroke-dasharray:15 10;}.b{stroke-dasharray:15.01 10;}.c{fill:#a18e00;}.d{fill:#fff;}.e,.f,.g,.h,.i{stroke:#10b37d;}.e,.g{stroke-width:4.61px;}.f{stroke-width:3.5px;}.g,.h,.i{stroke-linecap:round;}.g,.i{stroke-linejoin:round;}.h,.i{stroke-width:4.64px;}</style></defs><path class="a" d="M326.46,118.16C326.46,54.27,378.73,2,442.61,2H632.35"/><path class="a" d="M305.9,203.62c0,63.89-52.28,116.16-116.16,116.16H0"/><path class="a" d="M326.46,203.62c0,63.89,52.27,116.16,116.15,116.16H632.35"/><path class="a" d="M305.9,118.16C305.9,54.27,253.62,2,189.74,2H0"/><path class="b" d="M316.18,319.78C252.29,319.78,200,267.51,200,203.62V118.16C200,54.27,252.29,2,316.18,2S432.33,54.27,432.33,118.16v85.46C432.33,267.51,380.06,319.78,316.18,319.78Z"/><path class="c" d="M365.14,135.58A16.68,16.68,0,0,0,379,119.17c-33.12,0-49.64,14.24-62.86,28.72-13.23-14.48-29.75-28.72-62.87-28.72a16.68,16.68,0,0,0,13.91,16.41c18.5,3.21,28.94,12.91,38.74,23.79-9.8,10.88-20.24,20.58-38.74,23.79a16.68,16.68,0,0,0-13.91,16.41c33.12,0,49.64-14.24,62.87-28.71,13.22,14.47,29.74,28.71,62.86,28.71a16.68,16.68,0,0,0-13.9-16.41c-18.51-3.21-28.94-12.91-38.75-23.79,9.81-10.88,20.24-20.58,38.75-23.79"/><path class="d" d="M571.49,138.43c0,12.33-11.11,25.33-13.73,32.94-3.77,10.93,1.76,19.83-14.55,19.83s-10.78-8.9-14.54-19.82c-2.63-7.62-13.73-20.62-13.73-32.95a28.28,28.28,0,0,1,56.55,0"/><path class="e" d="M571.49,138.43c0,12.33-11.11,25.33-13.73,32.94-3.77,10.93,1.76,19.83-14.55,19.83s-10.78-8.9-14.54-19.82c-2.63-7.62-13.73-20.62-13.73-32.95a28.28,28.28,0,0,1,56.55,0Z"/><path class="f" d="M528.63,169.53a92,92,0,0,0,15.29,1.18,96.51,96.51,0,0,0,13.88-1h0"/><path class="f" d="M530.76,176.5a67.42,67.42,0,0,0,13,1.18,70.62,70.62,0,0,0,11.86-1h0"/><path class="f" d="M531.59,183.44a59.48,59.48,0,0,0,12.19,1.18,60.58,60.58,0,0,0,11.06-1h0"/><path class="g" d="M526.87,135.34c4,0,4,4.07,8,4.07s4-4.07,8.05-4.07,4,4.07,8.06,4.07,4-4.07,8.05-4.07"/><line class="h" x1="131.06" y1="145.95" x2="131.06" y2="161.1"/><path class="d" d="M121.15,147.21v25c0,6.57-18,14.74-40.21,14.74s-40.21-8.17-40.21-14.74v-25"/><path class="h" d="M121.15,147.21v25c0,6.57-18,14.74-40.21,14.74s-40.21-8.17-40.21-14.74v-25"/><path class="d" d="M77.65,158.26,23.32,142.39a3.27,3.27,0,0,1,0-6.29l54.33-15.87a11.69,11.69,0,0,1,6.58,0l54.33,15.87a3.27,3.27,0,0,1,0,6.29L84.23,158.26a11.87,11.87,0,0,1-6.58,0"/><path class="i" d="M77.65,158.26,23.32,142.39a3.27,3.27,0,0,1,0-6.29l54.33-15.87a11.69,11.69,0,0,1,6.58,0l54.33,15.87a3.27,3.27,0,0,1,0,6.29L84.23,158.26A11.87,11.87,0,0,1,77.65,158.26Z"/></svg>