<svg xmlns="http://www.w3.org/2000/svg" viewBox="0 0 18.88 12.12"><path d="M18.88,12.12c-5.66,0-8.09-2.78-10.24-5.22l-.13-.16C6.84,4.84,5.25,3,2.09,2.47A2.51,2.51,0,0,1,0,0C5.65,0,8.09,2.77,10.23,5.22l.14.16c1.67,1.9,3.26,3.71,6.42,4.26a2.52,2.52,0,0,1,2.09,2.48" style="fill:#c4aa60;fill-rule:evenodd"/><path d="M0,12.12c5.65,0,8.09-2.78,10.23-5.22l.14-.16C12,4.84,13.63,3,16.79,2.47A2.51,2.51,0,0,0,18.88,0C13.22,0,10.79,2.77,8.64,5.22l-.13.16C6.84,7.28,5.25,9.09,2.09,9.64A2.52,2.52,0,0,0,0,12.12" style="fill:#c4aa60;fill-rule:evenodd"/></svg>