<svg xmlns="http://www.w3.org/2000/svg" xmlns:xlink="http://www.w3.org/1999/xlink" viewBox="0 0 905.19 58.5" preserveAspectRatio="none"><defs><mask id="a" x="58.89" y="0" width="787.42" height="58.5" maskUnits="userSpaceOnUse"><path d="M58.89,0,76.14,26.45A70.64,70.64,0,0,0,135.3,58.5H769.89a70.64,70.64,0,0,0,59.16-32h0L846.3,0Z" style="fill:#fff;fill-rule:evenodd"/></mask><linearGradient id="b" x1="-228.21" y1="406.95" x2="-228.21" y2="407.95" gradientTransform="matrix(787.42, 0, 0, -58.5, 180148.22, 23865)" gradientUnits="userSpaceOnUse"><stop offset="0" stop-color="#281423"/><stop offset="1" stop-color="#1f443f"/></linearGradient></defs><path d="M0,0,34.26,24.36A106.14,106.14,0,0,0,95.78,44H809.41a106.14,106.14,0,0,0,61.52-19.64L905.19,0Z" style="fill-rule:evenodd;opacity:0.5;isolation:isolate"/><g style="mask:url(#a)"><path d="M58.89,0,76.14,26.45A70.64,70.64,0,0,0,135.3,58.5H769.89a70.64,70.64,0,0,0,59.16-32h0L846.3,0Z" style="fill-rule:evenodd;fill:url(#b)"/></g></svg>
