<svg xmlns="http://www.w3.org/2000/svg" viewBox="0 0 149.85 58.43"><defs><style>.a{fill:#474a46;fill-rule:evenodd;}</style></defs><path class="a" d="M11.16,47.67,29.5,55l18.17-7.76L55,28.94,47.27,10.77,28.93,3.41,10.76,11.17,3.4,29.5ZM29.52,58.43a1.58,1.58,0,0,1-.61-.12L9.32,50.45a1.65,1.65,0,0,1-.89-.87L.13,30.16a1.6,1.6,0,0,1,0-1.25L8,9.31a1.65,1.65,0,0,1,.87-.89L28.27.13a1.64,1.64,0,0,1,1.25,0L49.11,8a1.65,1.65,0,0,1,.89.87l8.29,19.41a1.6,1.6,0,0,1,0,1.25L50.44,49.1a1.62,1.62,0,0,1-.87.89L30.16,58.28A1.34,1.34,0,0,1,29.52,58.43Z"/><polygon class="a" points="33.43 28.91 25.58 37.55 37.95 37.55 37.95 41.28 20.48 41.28 20.48 37.55 28.26 28.94 20.51 20.87 20.51 17.15 37.95 17.15 37.95 20.87 25.76 20.87 33.43 28.91"/><polygon class="a" points="68.2 38.88 68.2 18.07 82.46 18.07 82.46 21.28 71.85 21.28 71.85 26.68 82.24 26.68 82.24 29.89 71.85 29.89 71.85 35.67 82.46 35.67 82.46 38.88 68.2 38.88"/><path class="a" d="M99.65,24.59a3.28,3.28,0,0,0-3.56-3.31h-5v6.61h5A3.27,3.27,0,0,0,99.65,24.59Zm-.31,14.29-4.62-7.77H91.1v7.77H87.45V18.07h9.14c4.12,0,6.8,2.68,6.8,6.52a5.84,5.84,0,0,1-4.93,6.12l5.09,8.17Z"/><path class="a" d="M106.15,28.49c0-6.52,4.9-10.77,10.92-10.77a9.77,9.77,0,0,1,8.39,4.34l-3,1.68a6.63,6.63,0,0,0-5.4-2.78c-4.12,0-7.18,3.15-7.18,7.52S112.94,36,117.06,36A7.66,7.66,0,0,0,122,34.16V30.92h-6.21V27.71h9.86v7.8a11.28,11.28,0,0,1-8.58,3.78,10.52,10.52,0,0,1-10.91-10.8"/><path class="a" d="M146.11,28.49c0-4.31-2.72-7.52-6.9-7.52s-6.9,3.21-6.9,7.52S135,36,139.21,36s6.9-3.24,6.9-7.52m-17.54,0c0-6.21,4.4-10.77,10.64-10.77s10.64,4.56,10.64,10.77-4.4,10.77-10.64,10.77-10.64-4.56-10.64-10.77"/></svg>