<?xml version="1.0" encoding="UTF-8"?>
<svg id="b" data-name="Layer_2" xmlns="http://www.w3.org/2000/svg" width="700" height="656.1" viewBox="0 0 700 656.1">
  <defs>
    <style>
      .d {
        fill: #231f20;
      }
    </style>
  </defs>
  <g id="c" data-name="a">
    <g>
      <path class="d" d="M190.1,365.6c-7.3,0-14.5,5.7-14.5,18.7s4.7,19.7,14.2,19.7c8.1,0,14.2-6.6,14.2-19.5,0-12.3-4.4-19-13.9-18.9Z"/>
      <path class="d" d="M449.3,523.9c-6.8,0-11.7,5-12.6,13.3h23.6c.3-8.7-4.1-13.3-11-13.3Z"/>
      <path class="d" d="M259,523.9c-6.8,0-11.7,5-12.6,13.3h23.6c.3-8.7-4.1-13.3-11-13.3Z"/>
      <path class="d" d="M92.8,353.7c0-6.4-3.8-10.7-13.9-10.8-3.6,0-6.7.2-9.4.3v22.7c2.1.1,4.1.1,6.8.1,11.4,0,16.5-4.6,16.5-12.3Z"/>
      <path class="d" d="M76.9,378.4c-1.2,0-5.5,0-7.3.1v24.5c2,.1,6.1.4,9.2.4,10.9,0,16.4-5.3,16.4-12.9,0-8.2-7-12-18.3-12.1Z"/>
      <path class="d" d="M500.3,398c0,4.1,3,7.4,7.7,7.4,7.9,0,13.3-7.7,13.3-15.4v-1.6c-16.5,0-21,4.1-21,9.6Z"/>
      <path class="d" d="M0,0v654.9l700,1.2V0H0ZM277,354l-2.6,14.1c-3.4-1.4-7.7-2.4-11.9-2.4-9.7,0-14.7,7.8-14.7,19.6,0,10.8,4,18.4,14.9,18.4,4.3,0,8.7-.9,12.4-2.6l2.2,13.7c-5,2-11.8,3-18,3-17.7,0-28.7-9.3-28.7-30.9,0-19.9,10.4-35.1,32.4-35.1,4.9,0,9.9.8,14,2.2ZM78.1,416.9c-5.7,0-14.3-.3-25.2-.3v-86.3c7.3-.3,18.2-.6,28.7-.6,18.6,0,29,7.6,29,21.4,0,8.5-4.8,16-13.1,19.3v.3c9.2,1.9,15.5,9.7,15.5,19.3,0,13.3-9.5,26.9-34.9,26.9ZM117.1,78.1h40.5v111c0,20.5,6.5,33.5,31.4,33.5,22.9,0,31.7-9.6,31.7-35.8v-108.7h40v106.4c0,49.3-27.8,72.1-74.3,72.1-55.8,0-69.3-30.1-69.3-65.1v-113.4ZM144.5,416.6h-16.4v-93.5h16.4v93.5ZM196.6,577.8c-30.3,0-40-20-40-41.5,0-27.5,14.3-46.8,43.3-46.8,6.1,0,12.8.9,18.4,2.6l-2.3,15.4c-5.2-2.1-11.1-3.1-16.9-3.1-16.3,0-24.2,12.2-24.2,29.1,0,18.7,7.8,29.2,25.2,29.2,5.3,0,11.9-1.4,16.4-3.6l2.6,14.7c-6.4,2.5-14.5,4-22.5,4ZM188.4,417.9c-18,0-29.7-9.3-29.7-32,0-19.9,13.2-34.2,32.5-34.2,18,0,29.7,10,29.7,31.9,0,20-13.4,34.3-32.5,34.3ZM285.6,548.1h-39.3c0,11.3,5.3,17.2,17.6,17.2,6.1,0,12.5-1.3,18.5-3.7l1.8,12.4c-7,2.6-15.3,4.1-23.1,4.1-20.1,0-31.4-10.1-31.4-32.5,0-19.1,11.2-33.7,30.2-33.7,18.6,0,26.4,11.9,26.4,27,0,2.4-.2,6.4-.7,9.2ZM289.1,221.4l56.3-94.2c2.8-4.7,5.9-9.1,9.3-13.5-4.7.2-10.6.5-27.5.5h-36.3v-36.3h113.4v33l-59.4,95.5c-2,3.4-4.1,6.3-6.7,9.9,3.4-.5,13.2-.5,34-.5h33.2v37.4l-116.3-.1v-31.7ZM290.7,323.1h16.4v56.4l18.6-26.5h19.9l-22.2,29,23.9,34.6h-20.5l-19.7-31.5v31.5h-16.4v-93.5ZM356.4,576.7h-16.3v-40.7c0-6.5-1.8-10.5-7.9-10.5-8.2,0-14.7,9.4-14.7,20.5v30.9h-16.4v-63.7h15.5c0,2.9-.3,8.1-.9,11.4h.1c3.8-7.4,11.2-12.7,21.6-12.7,14.4,0,19,9.1,19,20.2v44.6ZM354.2,386.9c0-19.9,10.4-35.1,32.4-35.1,4.9,0,9.9.8,14,2.2l-2.6,14.1c-3.4-1.4-7.7-2.4-11.9-2.4-9.7,0-14.7,7.8-14.7,19.6,0,10.8,4,18.4,14.9,18.4,4.3,0,8.7-.9,12.4-2.6l2.2,13.7c-5,2-11.8,3-18,3-17.7,0-28.7-9.3-28.7-30.9ZM396.6,578.2c-14,0-18.4-5.1-18.4-20v-32.3h-11v-12.7h11v-19.6l16.3-4.4v24h15.5v12.7h-15.5v27.9c0,8.2,2,10.5,7.6,10.5,2.7,0,5.1-.3,7.3-.9l1.2,12.9c-4.1,1-9.4,1.8-14,1.9ZM414.2,323.2h16.4v27.4c0,3.8-.3,9.1-1.2,12.9h.3c3.7-7.1,11-11.8,20.9-11.8,14.4,0,19,9.1,19,20.2v44.7h-16.4v-40.7c0-6.5-1.8-10.5-7.9-10.5-8.2,0-14.7,9.3-14.7,20.6v30.7h-16.4v-93.5ZM476,548.1h-39.3c0,11.3,5.3,17.2,17.6,17.2,6,0,12.4-1.3,18.4-3.7l1.8,12.4c-7,2.6-15.3,4.1-23.1,4.1-20.1,0-31.4-10.1-31.4-32.5,0-19.1,11.2-33.7,30.2-33.7,18.6,0,26.4,11.9,26.4,27,0,2.4-.1,6.4-.6,9.2ZM525.6,527.9c-11.8-2.3-17.7,5.2-17.7,22.9v26h-16.4v-63.7h15.5c0,3.2-.4,8.3-1.2,12.8h.3c3-8.1,9.2-15.1,20.2-14.1l-.7,16.1ZM522.6,416.7c0-3.8.1-7.5.6-10.8l-.1-.1c-3.1,7.2-10.9,12.2-20.4,12.2-11.5,0-18.2-7.8-18.2-18.2,0-15.2,14.5-22.2,36.8-22.2v-2.3c0-7.6-2.9-11.1-11.4-11.1-5.7,0-13.6,2-19.2,4.4l-2.7-12.6c6.4-2.6,15.5-4.4,24.1-4.4,19.7,0,25.6,8.2,25.6,22.4v26.2c0,5.1.1,11.1.5,16.4l-15.6.1ZM573.1,416.6v.1h-16.4v-63.7h16.4v63.6ZM564.9,343.5c-5.6,0-10.1-4.4-10.1-9.9s4.5-10,10.1-10,10.2,4.4,10.2,10c0,5.4-4.6,9.9-10.2,9.9ZM579.1,253.2h-40.5v-72.9h-64.1v72.9h-40.5V78.1h40.5v67.2h64.1v-67.2h40.5v175.1ZM647.2,416.6l-16.4.1v-40.7c0-6.5-1.7-10.5-7.9-10.5-8.2,0-14.7,9.4-14.7,20.5v30.7h-16.4v-63.7h15.5c0,2.9-.3,8.1-.9,11.4h.1c3.9-7.4,11.3-12.7,21.7-12.7,14.4,0,19,9.1,19,20.2v44.7Z"/>
    </g>
  </g>
</svg>