<svg xmlns="http://www.w3.org/2000/svg" xmlns:xlink="http://www.w3.org/1999/xlink" version="1.1" id="Layer_1" x="0px" y="0px" viewBox="0 0 915 204.21" style="enable-background:new 0 0 915 204.21;" xml:space="preserve">
<g>
	<rect y="176.61" width="80.43" height="25.15" fill="#484a47"/>
	<path d="M132.99,56.44c-8.91-4.91-19.08-7.36-30.54-7.36c-9.63,0-18.54,1.73-26.72,5.18c-8,3.45-14.63,8.36-19.9,14.72V0H24.75   v127.15H0v25.15h80.43v-25.15H55.83v-9.37c0-13.45,3.36-23.72,10.09-30.81c6.91-7.27,16.18-10.91,27.81-10.91   c11.63,0,20.81,3.64,27.54,10.91c6.73,7.09,10.09,17.36,10.09,30.81v83.97h30.81v-88.61c0-13.63-2.64-25.26-7.91-34.9   C149.16,68.61,142.07,61.34,132.99,56.44z" fill="#484a47"/>
	<path d="M314.4,73.34c-5.27-6.91-12.36-12.63-21.27-17.18c-8.72-4.73-18.99-7.09-30.81-7.09c-13.09,0-25.08,3.27-35.99,9.81   c-10.72,6.36-19.27,15.36-25.63,26.99c-6.18,11.63-9.27,24.99-9.27,40.08c0,15.09,3.09,28.63,9.27,40.62   c6.36,11.81,14.9,21.08,25.63,27.81c10.72,6.54,22.54,9.82,35.44,9.82c11.63,0,21.99-2.36,31.08-7.09   c9.09-4.73,16.27-10.63,21.54-17.72v22.36h31.35V51.53H314.4V73.34z M307.86,153.77c-4.18,7.63-9.72,13.45-16.63,17.45   c-6.91,4-14.36,6-22.36,6c-7.82,0-15.27-2-22.36-6c-6.91-4.18-12.54-10.18-16.9-17.99c-4.18-7.82-6.27-16.9-6.27-27.26   s2.09-19.27,6.27-26.72c4.36-7.63,10-13.36,16.9-17.18c6.91-4,14.36-6,22.36-6c8,0,15.45,2,22.36,6c6.91,4,12.45,9.81,16.63,17.45   c4.36,7.63,6.54,16.63,6.54,26.99C314.4,136.86,312.22,145.95,307.86,153.77z" fill="#484a47"/>
	<path d="M422.84,14.18h-31.35v37.35h-17.72v25.36h17.72v83.15c0,14.72,3.73,25.36,11.18,31.9c7.45,6.54,18.18,9.82,32.17,9.82   h24.53v-25.9h-19.08c-6.36,0-10.91-1.18-13.63-3.54c-2.55-2.54-3.82-6.63-3.82-12.27V76.88h36.53V51.53h-36.53V14.18z" fill="#484a47"/>
	<path d="M596.26,56.44c-8.91-4.91-19.08-7.36-30.53-7.36c-9.63,0-18.54,1.73-26.72,5.18c-8,3.45-14.63,8.36-19.91,14.72V0h-31.08   v201.75h31.08v-83.97c0-13.45,3.37-23.72,10.09-30.81c6.91-7.27,16.17-10.91,27.81-10.91s20.81,3.64,27.54,10.91   c6.72,7.09,10.09,17.36,10.09,30.81v83.97h30.81v-88.61c0-13.63-2.64-25.26-7.91-34.9C612.44,68.61,605.35,61.34,596.26,56.44z" fill="#484a47"/>
	<path d="M770.59,58.62c-11.63-6.36-24.63-9.54-38.99-9.54c-14.36,0-27.36,3.18-38.99,9.54c-11.63,6.36-20.81,15.45-27.53,27.26   c-6.72,11.81-10.09,25.36-10.09,40.62c0,15.45,3.27,29.08,9.82,40.9c6.54,11.63,15.54,20.72,26.99,27.26   c11.45,6.36,24.26,9.54,38.44,9.54c14.36,0,27.45-3.18,39.26-9.54c12-6.54,21.45-15.72,28.35-27.54   c6.91-11.81,10.36-25.36,10.36-40.62c0-15.27-3.36-28.81-10.09-40.62C791.4,74.07,782.22,64.98,770.59,58.62z M769.77,154.31   c-4.36,7.63-10.09,13.36-17.17,17.18c-6.91,3.82-14.36,5.73-22.36,5.73c-12.54,0-22.99-4.36-31.35-13.09   c-8.18-8.91-12.27-21.45-12.27-37.62c0-10.91,2-20.08,6-27.54c4-7.63,9.36-13.36,16.09-17.18c6.91-3.82,14.36-5.73,22.36-5.73   c7.99,0,15.45,1.91,22.35,5.73c6.91,3.82,12.45,9.54,16.63,17.18c4.18,7.45,6.27,16.63,6.27,27.54S774.13,146.68,769.77,154.31z" fill="#484a47"/>
	<path d="M888.01,55.62c-7.45,4.18-13.45,10.09-17.99,17.72V51.53h-31.08v150.22h31.08v-79.07c0-15.27,3.09-25.99,9.27-32.17   c6.36-6.18,15.63-9.27,27.81-9.27H915V49.08C904.64,49.08,895.65,51.26,888.01,55.62z" fill="#484a47"/>
</g>
</svg>