<svg xmlns="http://www.w3.org/2000/svg" version="1.0" width="1754.000000pt" height="475.000000pt" viewBox="0 0 1754.000000 475.000000" preserveAspectRatio="xMidYMid meet">

<g transform="translate(0.000000,475.000000) scale(0.100000,-0.100000)" fill="#484a48" stroke="none">
<path d="M2185 4740 c-55 -5 -145 -16 -200 -25 -928 -153 -1688 -854 -1914 -1765 -45 -182 -61 -302 -68 -505 -18 -575 164 -1112 534 -1570 338 -419 843 -721 1377 -824 155 -30 160 -25 11 14 -428 111 -782 362 -1026 724 -355 527 -404 1195 -129 1766 223 465 663 826 1155 948 177 44 242 52 445 52 204 0 269 -8 445 -52 502 -125 948 -497 1167 -972 260 -565 208 -1221 -137 -1736 -252 -377 -643 -646 -1078 -745 -123 -28 -63 -24 82 5 814 164 1502 774 1764 1562 94 282 122 454 122 758 0 245 -14 362 -66 575 -232 943 -1049 1665 -2014 1779 -133 16 -356 21 -470 11z" fill="#484a48"/>
<path d="M6576 3880 c-474 -74 -795 -370 -871 -804 -13 -76 -15 -237 -15 -1137 l0 -1049 300 0 300 0 0 685 0 685 245 0 245 0 0 275 0 275 -246 0 -246 0 4 103 c3 85 8 112 31 162 36 78 96 139 178 180 89 45 174 59 326 52 l123 -5 0 283 c0 216 -3 286 -12 292 -18 11 -292 13 -362 3z" fill="#484a48"/>
<path d="M16940 2280 l0 -1390 300 0 300 0 0 1390 0 1390 -300 0 -300 0 0 -1390z" fill="#484a48"/>
<path d="M12992 2538 l3 -823 27 -96 c50 -182 129 -321 252 -445 125 -125 292 -219 481 -270 91 -25 116 -27 285 -28 102 -1 193 2 203 6 16 7 17 30 17 284 l0 276 -27 -6 c-16 -3 -68 -8 -118 -12 -211 -14 -397 72 -472 221 -47 91 -53 133 -53 383 l0 232 280 0 280 0 0 275 0 275 -280 0 -280 0 -2 273 -3 272 -298 3 -298 2 3 -822z" fill="#484a48"/>
<path d="M8142 2889 c-255 -30 -477 -127 -634 -277 -139 -133 -214 -260 -266 -451 l-26 -96 -4 -587 -3 -588 300 0 301 0 0 538 c0 318 5 555 10 580 34 147 146 253 310 293 61 14 231 18 298 6 l42 -7 0 289 0 289 -63 11 c-72 12 -158 12 -265 0z" fill="#484a48"/>
<path d="M9521 2889 c-162 -19 -375 -96 -496 -179 -129 -89 -243 -223 -312 -366 -187 -393 -102 -896 204 -1197 121 -119 245 -193 409 -244 82 -25 103 -27 259 -27 165 -1 173 0 255 30 47 16 111 47 141 67 55 36 145 124 186 182 l21 29 11 -44 c7 -25 28 -91 47 -147 l36 -103 300 0 c282 0 300 1 293 17 -56 138 -94 275 -120 433 -9 55 -20 212 -25 370 -10 291 -24 403 -65 527 -155 461 -600 715 -1144 652z m304 -563 c179 -47 273 -175 299 -406 8 -70 -8 -188 -35 -263 -55 -148 -208 -237 -409 -237 -137 0 -259 41 -335 111 -135 124 -174 399 -84 585 46 96 161 189 265 213 60 14 243 12 299 -3z" fill="#484a48"/>
<path d="M11950 2894 c-14 -2 -59 -9 -100 -15 -107 -16 -220 -53 -331 -110 -272 -139 -453 -400 -499 -718 -18 -118 -8 -343 19 -446 106 -408 421 -677 858 -736 187 -25 552 4 728 58 l60 19 3 298 c2 282 1 298 -15 291 -146 -63 -306 -94 -508 -102 -115 -4 -167 -1 -224 11 -146 31 -251 115 -302 243 -21 51 -24 74 -24 198 0 136 1 142 31 205 55 115 148 187 284 221 77 20 338 17 460 -5 52 -9 133 -30 180 -47 47 -16 93 -32 103 -35 16 -6 17 12 17 289 l0 296 -67 20 c-178 52 -528 86 -673 65z" fill="#484a48"/>
<path d="M15355 2889 c-263 -35 -453 -126 -625 -299 -157 -157 -232 -306 -265 -526 -85 -564 257 -1078 783 -1180 96 -18 262 -18 354 1 146 30 296 126 384 246 l38 52 21 -74 c12 -41 34 -107 49 -146 l28 -73 299 0 299 0 -21 53 c-90 224 -124 426 -134 807 -3 118 -12 258 -20 310 -70 431 -357 730 -785 815 -96 19 -314 27 -405 14z m357 -578 c166 -64 255 -237 245 -476 -7 -168 -54 -268 -160 -342 -167 -114 -493 -90 -626 47 -98 101 -143 289 -111 460 30 156 144 284 292 325 82 23 285 15 360 -14z" fill="#484a48"/>
<path d="M2275 2373 c-473 -43 -876 -358 -1027 -803 -85 -251 -82 -532 7 -780 131 -363 442 -643 822 -741 102 -26 131 -24 63 4 -164 68 -298 225 -344 403 -51 196 10 410 159 560 121 122 273 181 445 171 219 -12 405 -135 498 -327 50 -106 66 -185 60 -298 -14 -226 -151 -421 -358 -510 l-55 -23 50 6 c126 17 296 87 435 180 504 335 670 996 386 1531 -220 414 -684 669 -1141 627z" fill="#484a48"/>
<path d="M2078 23 c6 -2 18 -2 25 0 6 3 1 5 -13 5 -14 0 -19 -2 -12 -5z" fill="#484a48"/>
<path d="M2638 23 c6 -2 18 -2 25 0 6 3 1 5 -13 5 -14 0 -19 -2 -12 -5z" fill="#484a48"/>
</g>
</svg>