<svg xmlns="http://www.w3.org/2000/svg" viewBox="0 0 121.3 80.71"><defs><style>.a{fill:#474a46;}</style></defs><polygon class="a" points="38.75 0 38.75 45.71 50.58 45.71 50.58 20.8 59.65 20.8 38.75 0"/><polygon class="a" points="73.94 0 73.94 24.9 64.87 24.9 85.77 45.71 85.77 0 73.94 0"/><polygon class="a" points="14.38 60.49 14.38 71.83 0 60.49 0 79.9 3.94 79.9 3.94 68.55 18.31 79.9 18.31 60.49 14.38 60.49"/><polygon class="a" points="22.13 79.9 22.13 60.49 38.15 60.49 38.15 64.05 26.26 64.05 26.26 68.13 38.15 68.13 38.15 71.69 26.26 71.69 26.26 76.34 38.15 76.34 38.15 79.9 22.13 79.9"/><polygon class="a" points="67.72 79.9 59.51 60.49 64.3 60.49 70.26 75.6 76.25 60.49 80.88 60.49 72.67 79.9 67.72 79.9"/><path class="a" d="M116.84,65.82a3.86,3.86,0,0,0-1.63-2.06,6.08,6.08,0,0,0-3-.63,7.63,7.63,0,0,0-3.36.59,1.84,1.84,0,0,0-1.17,1.71,1.8,1.8,0,0,0,.71,1.57,6.52,6.52,0,0,0,2.6.81l3.8.65a9.58,9.58,0,0,1,5,2.06A5.78,5.78,0,0,1,119,79.1a11.29,11.29,0,0,1-6.53,1.61,14.38,14.38,0,0,1-5.11-.78,6.44,6.44,0,0,1-3.11-2.38A8.44,8.44,0,0,1,103,73.49h4.16a3.93,3.93,0,0,0,1.53,2.87,6.5,6.5,0,0,0,3.8.91,7.06,7.06,0,0,0,3.43-.66,2.11,2.11,0,0,0,1.15-2,2,2,0,0,0-.76-1.63,5.42,5.42,0,0,0-2.42-.84l-3.11-.48a11.06,11.06,0,0,1-5.52-2,5.16,5.16,0,0,1-1.75-4.14,4.85,4.85,0,0,1,1-3.11,6.46,6.46,0,0,1,3-2,13.8,13.8,0,0,1,4.72-.71,10.53,10.53,0,0,1,5.84,1.36,6.56,6.56,0,0,1,2.72,4.27Z"/><path class="a" d="M101.48,70.2a11.21,11.21,0,0,1-1.32,5.54,9,9,0,0,1-3.83,3.67,14.15,14.15,0,0,1-11.74,0,9,9,0,0,1-3.85-3.62,12.23,12.23,0,0,1,0-11.19A9,9,0,0,1,84.52,61a14.15,14.15,0,0,1,11.74,0,9,9,0,0,1,3.85,3.62,11.13,11.13,0,0,1,1.37,5.65M97,70.2a7,7,0,0,0-1.74-5,7.53,7.53,0,0,0-9.77,0,6.94,6.94,0,0,0-1.74,5,7,7,0,0,0,1.74,5A6.53,6.53,0,0,0,90.43,77a6.42,6.42,0,0,0,4.87-1.81,7.06,7.06,0,0,0,1.74-5"/><path class="a" d="M55.85,79.9l-4-7.26H46.62V79.9H42.73V60.49h8.88q7.56,0,7.56,6.06a5.84,5.84,0,0,1-.85,3.26,5.52,5.52,0,0,1-2.59,2l4.55,8.05ZM51.3,69.3a5.17,5.17,0,0,0,3-.67,2.39,2.39,0,0,0,1-2.11,2.35,2.35,0,0,0-.9-2.07,5.2,5.2,0,0,0-2.95-.62H46.62v5.46H51.3Z"/></svg>