<svg xmlns="http://www.w3.org/2000/svg" viewBox="0 0 201 50"><defs><style>.a{fill:#474a46;}</style></defs><path class="a" d="M25,50A25,25,0,0,1,25,0a22.47,22.47,0,0,1,5.8.7,2.72,2.72,0,0,1,2,3.2,2.72,2.72,0,0,1-3.2,2A19.65,19.65,0,1,0,44.1,29.6a20,20,0,0,0,0-9.1,2.67,2.67,0,0,1,5.2-1.2A21.21,21.21,0,0,1,50,25,25,25,0,0,1,25,50Z"/><path class="a" d="M43.3,6.7a3.87,3.87,0,0,0-5.6,0l-.1.1a4.42,4.42,0,0,0-1.1,2.4h0v.7a7.16,7.16,0,0,1-7.8,6.4,2.92,2.92,0,0,1-.9-.2l-.6-.1a9.08,9.08,0,0,0-2.3-.3,8.62,8.62,0,0,0-6.1,2.5l-.3.2A9.26,9.26,0,0,0,31.6,31.5h0a6.42,6.42,0,0,0,1-1.3,9.37,9.37,0,0,0,1.5-7.4.9.9,0,0,1-.1-.5v-.1a7.19,7.19,0,0,1,5.3-8.6c.3-.1.7-.1,1-.2H41a4.12,4.12,0,0,0,2.4-1.1,1.76,1.76,0,0,0,.4-.5A4,4,0,0,0,43.3,6.7Z"/><path class="a" d="M94.4,20.1a9.24,9.24,0,0,0-9.3,9.1c0,5.4,3.8,9.1,9.3,9.1a9.24,9.24,0,0,0,9.3-9.1C103.8,23.9,99.9,20.1,94.4,20.1Zm3.9,9.1a3.8,3.8,0,0,1-3.6,4h-.3a3.88,3.88,0,0,1-3.9-3.8v-.2a3.8,3.8,0,0,1,3.6-4h.3a3.72,3.72,0,0,1,3.9,3.6Z"/><path class="a" d="M128.8,20.1a9.78,9.78,0,0,0-6.5,2.5,9.19,9.19,0,0,0-6.7-2.5c-4.5,0-9.4,3.5-9.4,9.1v7.9a.79.79,0,0,0,.8.8h3.9a.86.86,0,0,0,.8-.8V29.2a3.8,3.8,0,0,1,3.6-4h.3a3.72,3.72,0,0,1,3.9,3.6v8.3a.86.86,0,0,0,.8.8h3.8a.86.86,0,0,0,.8-.8V29.2a3.72,3.72,0,0,1,3.5-4h.4a3.8,3.8,0,0,1,3.9,3.7v8.2a.86.86,0,0,0,.8.8h3.8a.86.86,0,0,0,.8-.8V29.2C138.1,23.9,134.2,20.1,128.8,20.1Z"/><path class="a" d="M149.8,20.1a9.24,9.24,0,0,0-9.3,9.1c0,5.4,3.8,9.1,9.3,9.1a9.24,9.24,0,0,0,9.3-9.1C159.1,23.9,155.3,20.1,149.8,20.1Zm3.9,9.1a3.8,3.8,0,0,1-3.6,4h-.3a4,4,0,0,1-3.4-4.5,4,4,0,0,1,3.4-3.4,3.72,3.72,0,0,1,3.9,3.6Z"/><path class="a" d="M174.6,21.1a7.81,7.81,0,0,0-3.6-1,9.27,9.27,0,0,0-9.6,8.9v.2c0,5.4,3.8,9.1,9.3,9.1a9.24,9.24,0,0,0,9.3-9.1V12.4a.79.79,0,0,0-.8-.8h-3.9a.79.79,0,0,0-.8.8Zm0,8.1a3.8,3.8,0,0,1-3.6,4h-.3a4,4,0,0,1-3.4-4.5,4,4,0,0,1,3.4-3.4,3.72,3.72,0,0,1,3.9,3.6Z"/><path class="a" d="M191.7,20.1a9.24,9.24,0,0,0-9.3,9.1c0,5.4,3.8,9.1,9.3,9.1a9.24,9.24,0,0,0,9.3-9.1C201,23.9,197.2,20.1,191.7,20.1Zm3.9,9.1a3.8,3.8,0,0,1-3.6,4h-.3a3.88,3.88,0,0,1-3.9-3.8v-.2a3.8,3.8,0,0,1,3.6-4h.3a3.72,3.72,0,0,1,3.9,3.6Z"/><path class="a" d="M84.8,20.1H79a.52.52,0,0,0-.4.2l-5.2,5.2a.64.64,0,0,1-.9-.1c-.1-.1-.1-.2-.1-.4V12.2a.65.65,0,0,0-.6-.6H67.6a.65.65,0,0,0-.6.6h0V37.7a.65.65,0,0,0,.6.6h4.2a.65.65,0,0,0,.6-.6h0V34.4a.52.52,0,0,1,.2-.4l1.7-1.7a.75.75,0,0,1,.9,0,.1.1,0,0,0,.1.1l4.2,5.7a.37.37,0,0,0,.5.2h5.1a.58.58,0,0,0,.6-.6c0-.2,0-.3-.1-.4l-6.6-9a.53.53,0,0,1,.1-.8l6.4-6.4a.64.64,0,0,0-.1-.9A1.08,1.08,0,0,1,84.8,20.1Z"/></svg>