<svg xmlns="http://www.w3.org/2000/svg" viewBox="0 0 1386.15 1066.76"><defs><style>.a{fill:#474a46;}</style></defs><path class="a" d="M295.66,807.34c6.14,1.5,10.75,3.75,13,7.5a18.45,18.45,0,0,1,3.07,10.5c0,8.25-3.07,15-9.22,19.49-36.09,20.24-74.49,30.74-116,30.74s-71.42-8.25-89.08-24.74-26.88-44.24-26.88-82.47V580.92H20.74c-5.38,0-11.52-1.5-15.36-5.25S0,567.42,0,560.67c0-5.25,1.54-11.25,5.38-15s8.45-6,15.36-6H71.42V413.72a19.77,19.77,0,0,1,6.91-15c4.61-3.75,10.75-5.25,16.89-5.25s12.29,1.5,16.89,5.25,6.91,8.25,6.91,15v126H270.3a23.12,23.12,0,0,1,15.36,6c3.84,3.75,5.38,9,5.38,15s-1.54,11.25-5.38,15-8.45,5.25-15.36,5.25H119V768.37c0,24,5.38,42,16.13,52.48s30,15.74,58.36,15.74,56.83-7.5,85.24-24C284.14,806.59,289.52,805.84,295.66,807.34Z"/><path class="a" d="M407,826.09c-32.25-33-47.61-74.23-47.61-123.71q0-75.35,48.38-123.71c32.25-33,73.72-48.73,123.64-48.73,50.68,0,91.38,16.49,122.87,48.73,32.25,33,47.61,74.23,47.61,123.71,0,51-16.13,92.22-47.61,123.71-32.25,32.24-73.72,48.73-123.64,48.73S438.5,858.33,407,826.09Zm124.41,8.25c36.86,0,66-12.75,89.85-36.74,23-24,34.56-56.23,34.56-95.22s-11.52-71.23-34.56-95.22c-23-24.74-53-37.49-89.85-37.49s-66,12.75-89.85,37.49S407,664.14,407,702.38c0,39,11.52,70.48,34.56,95.22C465.38,822.34,494.56,834.34,531.42,834.34Z"/><path class="a" d="M870.85,601.16c31.49-47.23,72.95-71.23,124.41-71.23,52.22,0,91.38,16.49,118.26,48.73,26.88,33,40.7,73.48,40.7,123q0,75.35-41.47,123.71c-27.65,33-66,49.48-116,49.48s-90.62-16.49-122.1-50.23v221.93a19.77,19.77,0,0,1-6.91,15c-4.61,3.75-10.75,5.25-16.89,5.25s-12.29-1.5-16.89-5.25-6.91-8.25-6.91-15V595.91c0-11.25-5.38-16.49-16.89-16.49H768c-6.14,0-11.52-1.5-15.36-5.25s-5.38-8.25-5.38-15c0-5.25,1.54-11.25,5.38-15s8.45-6,15.36-6h48.38C854,538.18,872.38,558.43,870.85,601.16Zm3.84,180.69c38.4,35.24,76.79,52.48,115.19,52.48s66.81-12.75,86.78-36.74,30.72-57,30.72-97.47-9.22-72-30-95.22-46.84-35.24-81.4-35.24c-51.45,0-91.39,27.74-121.33,83.22v129Z"/><path class="a" d="M1330.08,824.59h35.33a23.12,23.12,0,0,1,15.36,6c3.84,3.75,5.38,9,5.38,15s-1.54,11.25-5.38,15-8.45,5.25-15.36,5.25h-35.33c-48.38,0-72.95-18.74-72.95-57V249.53H1198c-5.38,0-11.52-1.5-15.36-5.25s-5.38-8.25-5.38-15c0-5.25,1.54-11.25,5.38-15s8.45-6,15.36-6h82.94a27.21,27.21,0,0,1,16.89,6,18.72,18.72,0,0,1,6.91,15V807.34C1306.27,819.34,1314,824.59,1330.08,824.59Z"/><rect class="a" x="363.73" y="313.76" width="12" height="196.21" transform="translate(-141.62 623.66) rotate(-70.58)"/><rect class="a" x="436.32" y="394.19" width="168.7" height="12" transform="translate(-134.81 360.21) rotate(-34.06)"/><rect class="a" x="715.1" y="225.04" width="12" height="261.15" transform="translate(351.07 1069.43) rotate(-88.85)"/><rect class="a" x="565.01" y="275.03" width="228.45" height="12" transform="matrix(0.78, -0.63, 0.63, 0.78, -25.27, 490.8)"/><path class="a" d="M687.31,277.27s174.32-42.74,208.88-149.95S905.41.61,905.41.61s-39.17,33-69.89,42.73C805.57,55.34,681.93,110.82,687.31,277.27Z"/><path class="a" d="M686.86,277.86l0-.58C681.81,121.45,789,61.46,835.35,42.9,865.66,33.28,904.71.57,905.1.24l.29-.24.3.23c.27.2,6.52,5.21,8.53,23.47,1.84,16.72.29,48.29-17.59,103.76-7.91,24.54-23.84,47.71-47.35,68.87-18.79,16.91-42.44,32.59-70.29,46.59a491,491,0,0,1-91.58,34.81Z"/><path class="a" d="M905.39,1.23c-3.8,3.15-40.73,33.36-69.73,42.56-46,18.45-152.62,78.08-147.9,232.88a492.07,492.07,0,0,0,90.83-34.6c27.77-14,51.35-29.59,70.07-46.45,23.38-21.05,39.22-44.08,47.08-68.45C927.82,27.64,908,3.82,905.39,1.23Z"/><path class="a" d="M742.6,355.24s182.77-88.47,293.35-21c110.58,68.23,102.9,102,102.9,102s-58.36,0-92.92,12.75C1012.15,463.21,863.17,504.44,742.6,355.24Z"/><path class="a" d="M956.93,465.6a262.37,262.37,0,0,1-30.17-1.74,252.9,252.9,0,0,1-90.87-28.61c-34.28-18.41-65.79-45.23-93.65-79.71l-.37-.46.53-.26A558.1,558.1,0,0,1,847.71,319c34.6-8,66.83-11.45,95.78-10.39,36.23,1.32,67.42,9.82,92.72,25.26,31.57,19.48,73.34,48.59,93.06,76.7,11.89,16.94,10.14,25.42,10.06,25.77l-.08.37h-.38c-.58,0-58.68.15-92.76,12.72C1038.78,452.49,1004.82,465.6,956.93,465.6Z"/><path class="a" d="M743.34,355.41c27.69,34.15,59,60.74,93,79a251.94,251.94,0,0,0,90.53,28.51c63.24,7.34,110.13-10.71,118.89-14.4,32.75-12.08,87.42-12.75,92.69-12.78.18-1.79.3-10.12-10.1-24.86-10.87-15.41-35.77-41.15-92.64-76.23-25.15-15.35-56.19-23.8-92.25-25.12-28.87-1.05-61,2.43-95.53,10.36A560.11,560.11,0,0,0,743.34,355.41Z"/><path class="a" d="M485.34,440.71c0,16.49-13.82,29.24-29.95,29.24-16.89,0-29.95-13.5-29.95-29.24,0-16.49,13.82-29.24,29.95-29.24S485.34,424.22,485.34,440.71Z"/><path class="a" d="M628.18,351.49c0,16.49-13.82,29.24-29.95,29.24-16.89,0-30-13.5-30-29.24,0-16.49,13.82-29.24,30-29.24S628.18,335.75,628.18,351.49Z"/><path class="a" d="M307.18,379.23c0,16.49-13.82,29.24-29.95,29.24-16.89,0-30-13.5-30-29.24,0-16.49,13.82-29.24,30-29.24C294.12,349.24,307.18,362.74,307.18,379.23Z"/></svg>