<svg xmlns="http://www.w3.org/2000/svg" viewBox="0 0 1250 251.17"><defs><style>.a{fill:#474a46;}</style></defs><path class="a" d="M74.49,124.64A18.34,18.34,0,0,0,91.73,144l1,0a18.3,18.3,0,1,0-18.29-19.35Z"/><path class="a" d="M6.25,120a5.91,5.91,0,1,0,5.58,6.24A5.91,5.91,0,0,0,6.25,120Z"/><path class="a" d="M73.33,18.43a5.92,5.92,0,1,0-8-2.62A5.92,5.92,0,0,0,73.33,18.43Z"/><path class="a" d="M91.9,50.81a9.14,9.14,0,1,0-12.28-4.05A9.14,9.14,0,0,0,91.9,50.81Z"/><path class="a" d="M29.41,73.08a7.53,7.53,0,1,0-2.17-10.42A7.53,7.53,0,0,0,29.41,73.08Z"/><path class="a" d="M40.54,116.67a9.14,9.14,0,1,0,8.61,9.65A9.15,9.15,0,0,0,40.54,116.67Z"/><path class="a" d="M30.41,178.12a7.53,7.53,0,1,0,10.11,3.33A7.52,7.52,0,0,0,30.41,178.12Z"/><path class="a" d="M65.94,97.78a10.76,10.76,0,1,0-3.09-14.9A10.76,10.76,0,0,0,65.94,97.78Z"/><path class="a" d="M178.66,50.09A9.15,9.15,0,1,0,176,37.42,9.14,9.14,0,0,0,178.66,50.09Z"/><path class="a" d="M197.42,17.81a5.91,5.91,0,1,0-1.71-8.19A5.92,5.92,0,0,0,197.42,17.81Z"/><path class="a" d="M180.1,107.22A18.3,18.3,0,1,0,178,143.77l1.05,0a18.3,18.3,0,0,0,13.64-30.49A18,18,0,0,0,180.1,107.22Z"/><path class="a" d="M97.91,96.51A18.31,18.31,0,1,0,106,71.92,18.22,18.22,0,0,0,97.91,96.51Z"/><path class="a" d="M241.41,73.06a7.53,7.53,0,1,0-10.11-3.34A7.54,7.54,0,0,0,241.41,73.06Z"/><path class="a" d="M195,78.89a10.76,10.76,0,1,0,14.45,4.77A10.76,10.76,0,0,0,195,78.89Z"/><path class="a" d="M135.22,15.05a7.53,7.53,0,1,0-7.09-8A7.54,7.54,0,0,0,135.22,15.05Z"/><path class="a" d="M135.14,62.44A10.76,10.76,0,1,0,125,51.09,10.75,10.75,0,0,0,135.14,62.44Z"/><path class="a" d="M76.84,172.28a10.76,10.76,0,1,0-14.45-4.77A10.76,10.76,0,0,0,76.84,172.28Z"/><path class="a" d="M142.09,78.14a18.3,18.3,0,1,0,15.33-8.27A18.33,18.33,0,0,0,142.09,78.14Z"/><path class="a" d="M173.91,154.67a18.3,18.3,0,1,0-16.34,26.55,18.31,18.31,0,0,0,16.34-26.55Z"/><path class="a" d="M205.89,153.39a10.76,10.76,0,1,0,3.1,14.9A10.76,10.76,0,0,0,205.89,153.39Z"/><path class="a" d="M240.93,125.9a9.14,9.14,0,1,0-9.65,8.61A9.16,9.16,0,0,0,240.93,125.9Z"/><path class="a" d="M266.25,119.39a5.91,5.91,0,1,0,5.57,6.24A5.93,5.93,0,0,0,266.25,119.39Z"/><path class="a" d="M242.41,178.09a7.53,7.53,0,1,0,2.17,10.43A7.53,7.53,0,0,0,242.41,178.09Z"/><path class="a" d="M74.41,233.36a5.91,5.91,0,1,0,1.7,8.19A5.92,5.92,0,0,0,74.41,233.36Z"/><path class="a" d="M198.49,232.74a5.92,5.92,0,1,0,7.95,2.63A5.92,5.92,0,0,0,198.49,232.74Z"/><path class="a" d="M129.73,173a18.32,18.32,0,1,0-15.34,8.27A18.16,18.16,0,0,0,129.73,173Z"/><path class="a" d="M93.16,201.09a9.14,9.14,0,1,0,2.63,12.66A9.15,9.15,0,0,0,93.16,201.09Z"/><path class="a" d="M135.83,236.12a7.53,7.53,0,1,0,7.09,7.95A7.54,7.54,0,0,0,135.83,236.12Z"/><path class="a" d="M135.91,188.74A10.76,10.76,0,1,0,146,200.09,10.75,10.75,0,0,0,135.91,188.74Z"/><path class="a" d="M179.92,200.36a9.14,9.14,0,1,0,12.28,4A9.15,9.15,0,0,0,179.92,200.36Z"/><path class="a" d="M381.86,82.35c17.72,0,30.13,9.75,30.13,27.82h23.22c0-31.72-23.39-47-53.7-47-37.22,0-58.84,20.21-58.84,62.91,0,43.78,21.62,62.91,58.84,62.91,30.66,0,53.7-14.89,53.7-46.61H412.88c0,17.72-12.23,27.47-31,27.47-24.64,0-36-13.65-36-42v-3.54C345.89,96.52,357.4,82.35,381.86,82.35Z"/><path class="a" d="M496.57,65.33,449.25,186.9h23.39l9.75-26.41H538L548,186.9h24.46L525.1,65.33Zm-7.09,76L501.89,108c2.48-6.56,6.91-20.74,7.8-23.22h.89c.88,2.48,5.32,16.84,7.8,23.22l12.4,33.32Z"/><path class="a" d="M699,102.19c0-22.51-12.94-36.86-39.7-36.86H595.14V186.9h22.68v-47h37.75l23,47h24.81l-26-50.51C691.73,130.73,699,118.68,699,102.19ZM657.52,120.8h-39.7V84.65h39.7c12.23,0,18.61,6.56,18.61,17.54C676.13,113.72,669.22,120.8,657.52,120.8Z"/><path class="a" d="M778.58,65.33H730V186.9h48.56c36.69,0,59-19.14,59-60.79S815.26,65.33,778.58,65.33Zm35.8,62.56c-.18,26.58-12.76,39.7-35.8,39.7H752.71V84.65h25.87c23,0,35.8,13.11,35.8,39.7Z"/><path class="a" d="M897,65.33,849.66,186.9h23.39l9.75-26.41h55.65l9.93,26.41h24.46L925.51,65.33Zm-7.09,76L902.3,108c2.48-6.56,6.91-20.74,7.8-23.22H911c.89,2.48,5.32,16.84,7.8,23.22l12.4,33.32Z"/><path class="a" d="M1076.54,137.64c0,2.3.35,8.51.35,9.57l-.88.35c-.53-.71-4.08-6.91-6-9.75l-52.81-72.48H995.55V186.9h21.8V114.06c0-3-.36-8.86-.36-9.74l.89-.53c.53.71,3.19,5.85,6,9.92l53.17,73.19h21.27V65.33h-21.8v72.31Z"/><path class="a" d="M1188.68,63.21c-38.1,0-61.14,20.21-61.14,62.91s23,62.91,61.14,62.91,61.32-20.2,61.32-62.91S1226.78,63.21,1188.68,63.21Zm38.1,64.86c0,27.83-13.29,41.83-38.1,41.83-24.63,0-37.92-14-37.92-41.83v-3.72c0-27.82,13.47-42,37.92-42,24.63,0,38.1,14.18,38.1,42Z"/></svg>