<svg xmlns="http://www.w3.org/2000/svg" viewBox="0 0 199.04 48"><defs><style>.cls-1{fill:#474a46;}</style></defs><g id="Layer_2" data-name="Layer 2"><g id="Layer_1-2" data-name="Layer 1"><path class="cls-1" d="M50.09,47.74V34.28h2.36V45.67h5.94v2.08Z"/><path class="cls-1" d="M82.46,47.74l-1-2.58H75.3l-1,2.58H71.63l5.29-13.46h2.94l5.29,13.46ZM78.38,36.66,76,43.1h4.85Z"/><path class="cls-1" d="M98.76,47.74V34.28h6.64c2.46,0,3.83,1.54,3.83,3.43a3,3,0,0,1-2.34,3.09,3.33,3.33,0,0,1,2.61,3.31c0,2.08-1.4,3.64-3.93,3.64Zm8-9.63a1.71,1.71,0,0,0-1.65-1.76h-4v3.49h3.78A1.69,1.69,0,0,0,106.79,38.11Zm.27,5.67A1.85,1.85,0,0,0,105,41.92h-3.88v3.74H105a1.83,1.83,0,0,0,2.08-1.88Z"/><path class="cls-1" d="M123,45.84,124.35,44a5.81,5.81,0,0,0,4.27,1.86c1.93,0,2.7-1,2.7-1.83,0-2.81-7.85-1.08-7.85-6,0-2.24,2-3.93,4.9-3.93a7,7,0,0,1,5,1.88l-1.35,1.76a5.47,5.47,0,0,0-3.89-1.54c-1.4,0-2.29.67-2.29,1.68,0,2.51,7.86,1,7.86,6,0,2.24-1.57,4.16-5.21,4.16A7.32,7.32,0,0,1,123,45.84Z"/><path class="cls-1" d="M86.33,0A12.67,12.67,0,1,0,99,12.68h0A12.68,12.68,0,0,0,86.33,0Zm0,20.45a7.79,7.79,0,1,1,7.78-7.79h0A7.79,7.79,0,0,1,86.33,20.45Z"/><path class="cls-1" d="M55,24.81h-4.9V.31H55v9.8h9.79V.31h4.9v24.5h-4.9V15H55Z"/><path class="cls-1" d="M131.5,24.81h-4.9V.31h4.9Z"/><path class="cls-1" d="M154.41,24.81h-19l10.46-19.6H135.45V.31h19L144,19.91h10.41Z"/><path class="cls-1" d="M175.12,24.81H158.33V.31h16.79v4.9H163.23v4.9h8.05V15h-8.05v4.89h11.89Z"/><path class="cls-1" d="M199,24.81h-5.23L184.33,8.68V24.81h-4.89V.31h5.25l9.44,16.14V.31H199Z"/><path class="cls-1" d="M122.6,8.41c0-5.24-3.12-8.1-8.22-8.1H102.92v24.5h4.9v-8.3h4.31l5,8.3h5.43l-5-8.73C120.72,15.1,122.6,12.47,122.6,8.41Zm-14.78-.34V5.21h5.86c2.12,0,3.92,1.09,3.92,3.2s-1.79,3.2-3.92,3.2h-5.86Z"/><path class="cls-1" d="M21.67.3V9.42c1.33-.23,2.66-.41,4-.54-1.37.12-2.71.3-4,.54A47.31,47.31,0,0,0,0,19.28v20H0L13,48V26.21a34,34,0,0,1,16.86-4.44,35,35,0,0,1,4.79.34V.29Zm-10,45.19L1.33,38.57V37.1A34.38,34.38,0,0,1,11.67,27ZM33.34,11.2v9.42a34.24,34.24,0,0,0-3.48-.18A35.56,35.56,0,0,0,1.33,34.81V19.91A46,46,0,0,1,29.86,10c1.16,0,2.32.05,3.48.13Z"/><path class="cls-1" d="M21.67,25.26V48l13-8.67V24.52a32.46,32.46,0,0,0-13,.74Z"/><path class="cls-1" d="M13,.3H0V16.44a50,50,0,0,1,13-7Z"/></g></g></svg>