<svg xmlns="http://www.w3.org/2000/svg" viewBox="0 0 262.92 50"><defs><style>.d{fill:#474a46;}</style></defs><g id="a"/><g id="b"><g id="c"><g><g><g><path class="d" d="M19,25.25l.25-.25-.25-.25-.25,.25,.25,.25Z"/><path class="d" d="M25,17.75c.18-.17,.18-.33,0-.5-.18,.17-.18,.33,0,.5Z"/><path class="d" d="M25,32.25c-.18,.17-.18,.33,0,.5,.18-.17,.18-.33,0-.5Z"/><path class="d" d="M25,17.75l-.5,.5,.5,.5,.5-.5-.5-.5Z"/><path class="d" d="M25,32.25l.5-.5-.5-.5-.5,.5,.5,.5Z"/><path class="d" d="M25.25,31l-.25-.25-.25,.25,.25,.25,.25-.25Z"/><path class="d" d="M17.75,25l.5,.5,.5-.5-.5-.5-.5,.5Z"/><path class="d" d="M31,24.75l-.25,.25,.25,.25,.25-.25-.25-.25Z"/><path class="d" d="M14.13,25l4.25,4.25c.35-.23,.48-.77,1.24-.69,.45,.79,1.6,1.18,1.87,2.31l-.74,.74,4.25,4.25,4.25-4.25c-.23-.35-.77-.48-.69-1.24,.79-.44,1.16-1.61,2.32-1.86l.74,.74,4.25-4.25-4.25-4.25c-.35,.23-.48,.77-1.24,.69-.44-.79-1.61-1.16-1.86-2.32l.74-.74-4.25-4.25-4.25,4.25c.23,.35,.77,.48,.69,1.24-.79,.45-1.18,1.6-2.31,1.87l-.74-.74-4.25,4.25Zm15.1-3.98l.75,.75-.37,.37c-.43,.04-.55-.32-.76-.58-.03-.29,.26-.36,.38-.55Zm-.34,1.27l-.7,.7-.33-.33c-.11-.45,.39-.48,.44-.76,.35-.03,.47,.14,.58,.39Zm-1.27-.15c-.39,.02-.46-.25-.6-.34l.71-.71,.38,.31c.02,.46-.42,.49-.49,.74Zm.61-2.12l.75,.75-.37,.37c-.43,.04-.55-.32-.75-.58-.03-.29,.26-.36,.38-.55Zm-4.73-2.27l.5,.5c.35-.4-.1-.52-.25-.75l.75-.75,.5,.5,.5-.5,.75,.75c-.15,.23-.6,.35-.25,.75l.5-.5,.75,.75-.72,.72c-.24-.36-.17-.79-.53-.97l-.75,.75c.15,.23,.6,.35,.25,.75l-.5-.5-.5,.5c-.35-.4,.1-.52,.25-.75l-.75-.75c-.26,.22-.46,.47-.37,.85-.48,.06-.58-.41-.88-.6l.75-.75Zm-1.66,5.27l-.71-.71,.32-.38c.42,.02,.57,.32,.74,.61,.01,.27-.26,.34-.35,.48Zm.86-.85c-.45,.11-.48-.39-.76-.44-.03-.35,.14-.47,.39-.58l.7,.7-.33,.33Zm-1.09-.98c-.29,.03-.36-.26-.55-.38l.75-.75,.37,.37c.04,.43-.32,.55-.58,.75Zm-1,1c-.29,.03-.36-.26-.55-.38l.75-.75,.37,.37c.04,.43-.32,.55-.58,.75Zm-2.1,5.07l-.75-.75,.5-.5c-.4-.35-.52,.1-.75,.25l-.75-.75,.5-.5-.5-.5,.75-.75c.23,.15,.35,.6,.75,.25l-.5-.5,.75-.75,.72,.72c-.36,.24-.79,.17-.97,.53l.75,.75c.23-.15,.35-.6,.75-.25l-.5,.5,.5,.5c-.4,.35-.52-.1-.75-.25l-.75,.75c.24,.22,.41,.59,.84,.3,.07,.55-.4,.66-.59,.95Zm2.27,1.73l-.75-.75,.37-.37c.43-.04,.55,.32,.75,.58,.03,.29-.26,.36-.38,.55Zm.34-1.27l.7-.7,.33,.33c.11,.45-.39,.48-.45,.76-.35,.03-.47-.14-.58-.39Zm.66,2.27l-.75-.75,.37-.37c.43-.04,.55,.32,.76,.58,.03,.29-.26,.36-.38,.55Zm.73-2.13c.27-.01,.34,.26,.48,.35l-.71,.71-.38-.32c.02-.42,.32-.57,.61-.74Zm2.12,1.15l-.48-.48c-.45-.04-.5,.6-.96,.57,0-.42,.47-.5,.58-.84-.05-.28-.32-.39-.48-.6l.3-.3c-.11-.46-.57-.61-.75-.93-.31-.03-.36,.19-.5,.28l-.48-.48c-.45-.04-.5,.6-.96,.57,0-.42,.47-.5,.58-.84-.05-.28-.32-.39-.48-.6l-.38-.38,.38-.38,.48-.48c.04-.45-.6-.5-.57-.96,.42,0,.5,.47,.84,.58,.28-.05,.39-.32,.6-.48l.3,.3c.46-.11,.61-.57,.93-.75,.03-.31-.19-.36-.28-.5l.48-.48c.04-.45-.6-.5-.57-.96,.42,0,.5,.47,.84,.58,.28-.05,.39-.32,.6-.48l.38-.38,.38,.38,.48,.48c.45,.04,.5-.6,.96-.58,0,.42-.47,.5-.58,.83,.06,.29,.33,.41,.48,.61l-.3,.3c.1,.47,.57,.62,.75,.94,.31,.03,.36-.19,.5-.28l.48,.48c.45,.04,.5-.6,.96-.58,0,.42-.47,.5-.58,.83,.06,.29,.33,.41,.48,.61l.38,.38-.38,.38-.48,.48c-.04,.45,.6,.5,.58,.96-.42,0-.5-.47-.83-.58-.29,.06-.41,.33-.61,.48l-.3-.3c-.47,.1-.62,.57-.94,.75-.03,.31,.19,.36,.28,.5l-.48,.48c-.04,.45,.6,.5,.58,.96-.42,0-.5-.47-.83-.58-.29,.06-.41,.33-.61,.48l-.38,.38-.38-.38Zm2.69-1.18c.45-.11,.48,.4,.76,.44,.03,.36-.14,.47-.39,.58l-.7-.7c.17-.17,.25-.25,.33-.33Zm.52-.25c-.02-.39,.25-.46,.34-.6l.71,.71-.31,.38c-.46,.02-.49-.42-.74-.49Zm-1.32,4.67l-.5-.5c-.35,.4,.1,.52,.25,.75l-.75,.75-.5-.5-.5,.5-.75-.75c.15-.23,.6-.35,.25-.75l-.5,.5-.75-.75,.72-.72c.24,.36,.17,.79,.53,.97l.75-.75c-.15-.23-.6-.35-.25-.75l.5,.5,.5-.5c.35,.4-.1,.52-.25,.75l.75,.75c.22-.24,.59-.41,.3-.84,.55-.07,.66,.4,.95,.59l-.75,.75Zm1.9-3.43c.29-.03,.36,.26,.55,.38l-.75,.75-.37-.37c-.04-.43,.32-.55,.58-.76Zm1-1c.29-.03,.36,.26,.55,.38l-.75,.75-.37-.37c-.04-.43,.32-.55,.58-.75Zm3.1-1.57c-.23-.15-.35-.6-.75-.25l.5,.5-.75,.75-.72-.72c.36-.24,.79-.17,.97-.53l-.75-.75c-.23,.15-.35,.6-.75,.25l.5-.5-.5-.5c.4-.35,.52,.1,.75,.25l.75-.75c-.22-.26-.47-.46-.85-.37-.06-.48,.41-.58,.6-.88l.75,.75-.5,.5c.4,.35,.52-.1,.75-.25l.75,.75-.5,.5,.5,.5-.75,.75Z"/><path class="d" d="M32.25,25c.17,.18,.33,.18,.5,0-.17-.18-.33-.18-.5,0Z"/><path class="d" d="M31.25,25l.5,.5,.5-.5-.5-.5-.5,.5Z"/><path class="d" d="M24.75,19l.25,.25,.25-.25-.25-.25-.25,.25Z"/><path class="d" d="M17.75,25c-.17-.18-.33-.18-.5,0,.17,.18,.33,.18,.5,0Z"/></g><g><path class="d" d="M40.22,15.22c-.8,.53-1.11,1.77-2.86,1.59-1.01-1.83-3.7-2.68-4.27-5.33l1.69-1.69L25,0,15.22,9.78c.53,.8,1.77,1.11,1.59,2.85-1.81,1.03-2.7,3.67-5.31,4.3l-1.71-1.71L0,25l9.78,9.78c.8-.53,1.11-1.77,2.85-1.59,1.03,1.81,3.67,2.7,4.3,5.31l-1.71,1.71,9.78,9.78,9.78-9.78c-.53-.8-1.77-1.11-1.59-2.86,1.83-1.01,2.68-3.7,5.33-4.27,.62,.62,1.15,1.15,1.69,1.69l9.78-9.78-9.78-9.78ZM12.92,26.15c-.91,.81-1.2-.23-1.73-.58-.58,.58-1.15,1.15-1.73,1.73,.55,.5,.95,1.36,1.94,.68,.17,1.27-.93,1.51-1.37,2.19-.58-.58-1.15-1.15-1.73-1.73l1.15-1.15c-.91-.81-1.2,.23-1.73,.58l-1.73-1.73,1.15-1.15c-.38-.38-.77-.77-1.15-1.15l1.73-1.73c.52,.35,.82,1.39,1.73,.58l-1.15-1.15c.58-.58,1.15-1.15,1.73-1.73l1.65,1.65c-.82,.55-1.81,.39-2.23,1.22l1.73,1.73c.52-.35,.82-1.39,1.73-.58l-1.15,1.15,1.15,1.15Zm19.52-12.61c.58,.58,1.15,1.15,1.73,1.73l-.86,.86c-.99,.09-1.27-.75-1.74-1.33-.06-.67,.59-.83,.87-1.26Zm3.43,11.08c.21,.21,.21,.56,0,.77l-2.4,2.4c.41,.41,1.04,.7,.99,1.39-.71,.01-1-.57-1.4-.99l-1.29,1.29c-.11,.11-.25,.16-.39,.16s-.28-.05-.39-.16l-.47-.47c-.34,.16-.59,.45-.87,.78-.2,.23-.4,.47-.65,.67,.03,.08,.1,.14,.22,.24,.11,.1,.24,.21,.34,.37,.14,.22,.11,.51-.07,.69l-1.3,1.3c.41,.41,1.04,.7,.99,1.39-.71,.01-1-.57-1.4-.99l-2.4,2.4c-.11,.11-.25,.16-.39,.16s-.28-.05-.39-.16l-2.4-2.4c-.41,.41-.7,1.04-1.4,.99,0-.7,.58-.99,.99-1.4l-1.29-1.29c-.21-.21-.21-.56,0-.77l.17-.17,.31-.31c-.16-.34-.45-.59-.78-.87-.23-.2-.47-.4-.67-.65-.08,.03-.14,.09-.24,.22-.1,.11-.21,.24-.37,.34-.09,.06-.2,.09-.3,.09-.14,0-.28-.05-.39-.16l-1.3-1.3c-.41,.41-.7,1.04-1.4,.99,0-.7,.58-.99,.99-1.4l-2.39-2.39c-.21-.21-.21-.56,0-.77l2.4-2.4c-.41-.41-1.04-.7-.99-1.4,.7,0,.99,.58,1.4,.99l1.29-1.29c.11-.11,.25-.16,.39-.16s.28,.05,.39,.16l.47,.47c.34-.16,.59-.45,.87-.78,.2-.23,.4-.47,.65-.67-.03-.08-.1-.14-.22-.24-.11-.1-.24-.21-.34-.37-.14-.22-.11-.51,.07-.69l1.3-1.3c-.41-.41-1.04-.7-.99-1.4,.7,0,.99,.58,1.4,.99l2.39-2.39c.11-.11,.25-.16,.39-.16s.28,.05,.39,.16l2.4,2.4c.41-.41,.7-1.04,1.39-.99,.01,.71-.57,1-.99,1.4l1.29,1.29c.21,.21,.21,.56,0,.77l-.22,.22-.25,.25c.16,.34,.45,.59,.78,.87,.23,.2,.47,.4,.67,.65,.08-.03,.14-.1,.24-.22,.1-.11,.21-.24,.37-.34,.09-.06,.2-.09,.3-.09,.14,0,.28,.05,.39,.16l1.3,1.3c.41-.41,.7-1.04,1.39-.99,.01,.71-.57,1-.99,1.4l2.4,2.4Zm-1.95,6.58c-.29,.35-.52,.63-.72,.87-1.05,.05-1.12-.97-1.7-1.12-.04-.89,.58-1.05,.79-1.38l1.63,1.63Zm-16.54,.94c-.81,.07-1.07-.32-1.33-.9,.54-.54,1.07-1.07,1.6-1.6l.75,.75c.26,1.04-.89,1.11-1.02,1.75Zm-1.28-13.32c.29-.35,.52-.63,.73-.87,.96,.05,1.31,.74,1.71,1.39,.03,.62-.6,.79-.8,1.11l-1.63-1.63Zm16.27,1.55l-.75-.75c-.26-1.04,.89-1.11,1.02-1.75,.81-.07,1.07,.32,1.33,.9-.54,.54-1.07,1.07-1.6,1.6Zm-.21-3.64c.05,1.05-.97,1.12-1.12,1.7-.89,.04-1.05-.58-1.38-.79,.52-.52,1.05-1.05,1.63-1.63l.87,.72Zm-10.6-8.4l1.15,1.15c.81-.91-.23-1.2-.58-1.73l1.73-1.73c.38,.38,.77,.77,1.15,1.15l1.15-1.15,1.73,1.73c-.35,.52-1.39,.82-.58,1.73l1.15-1.15c.58,.58,1.15,1.15,1.73,1.73l-1.65,1.65c-.55-.82-.39-1.81-1.22-2.23l-1.73,1.73c.35,.52,1.39,.82,.58,1.73l-1.15-1.15c-.38,.38-.77,.77-1.15,1.15-.81-.91,.23-1.2,.58-1.73l-1.73-1.73c-.61,.5-1.06,1.08-.85,1.96-1.1,.15-1.34-.95-2.02-1.39,.58-.58,1.15-1.15,1.73-1.73Zm-1.1,9.41l-.75,.75c-1.04,.26-1.11-.89-1.75-1.02-.07-.81,.32-1.07,.9-1.33l1.6,1.6Zm-2.8-4.1l.86,.86c.09,.99-.75,1.27-1.33,1.74-.67,.06-.83-.59-1.26-.87,.58-.58,1.15-1.15,1.73-1.73Zm-2.3,2.3l.86,.86c.09,.99-.75,1.27-1.33,1.74-.67,.06-.83-.59-1.26-.87,.58-.58,1.15-1.15,1.73-1.73Zm-.09,18.23c-.58-.58-1.15-1.15-1.73-1.73l.86-.86c.99-.09,1.27,.75,1.74,1.33,.06,.67-.59,.83-.87,1.26Zm2.3,2.3l-1.73-1.73,.86-.86c.99-.09,1.27,.75,1.74,1.33,.06,.67-.59,.83-.87,1.26Zm.28-3.19c.05-.96,.74-1.31,1.39-1.71,.62-.03,.79,.6,1.11,.8l-1.63,1.63c-.35-.29-.63-.52-.87-.73Zm10.6,8.41c-.38-.38-.77-.77-1.15-1.15-.81,.91,.23,1.2,.58,1.73-.58,.58-1.15,1.15-1.73,1.73l-1.15-1.15-1.15,1.15-1.73-1.73c.35-.52,1.39-.82,.58-1.73-.38,.38-.77,.77-1.15,1.15l-1.73-1.73,1.65-1.65c.55,.82,.39,1.81,1.22,2.23l1.73-1.73c-.35-.52-1.39-.82-.58-1.73l1.15,1.15,1.15-1.15c.81,.91-.23,1.2-.58,1.73l1.73,1.73c.5-.55,1.36-.95,.68-1.94,1.27-.17,1.51,.93,2.19,1.37l-1.73,1.73Zm1.1-9.41c.38-.38,.57-.57,.75-.75,1.04-.26,1.1,.91,1.74,1.01,.07,.82-.32,1.08-.9,1.34l-1.6-1.6Zm2.8,4.1l-.86-.86c-.09-.99,.75-1.26,1.33-1.74,.67-.06,.83,.59,1.26,.87-.58,.58-1.15,1.15-1.73,1.73Zm2.3-2.3l-.86-.86c-.09-.99,.75-1.26,1.33-1.74,.67-.06,.83,.59,1.26,.87l-1.73,1.73Zm.96-15.65c-.99,.09-1.27-.75-1.74-1.33-.06-.67,.59-.83,.87-1.26l1.73,1.73-.86,.86Zm6.65,9.46c-.52-.35-.82-1.39-1.73-.58l1.15,1.15c-.58,.58-1.15,1.15-1.73,1.73-.53-.53-1.05-1.05-1.65-1.65,.82-.55,1.81-.39,2.23-1.22-.58-.58-1.15-1.15-1.73-1.73-.52,.35-.82,1.39-1.73,.58l1.15-1.15-1.15-1.15c.91-.81,1.2,.23,1.73,.58l1.73-1.73c-.5-.61-1.08-1.06-1.96-.85-.15-1.1,.95-1.34,1.39-2.02,.58,.58,1.15,1.15,1.73,1.73l-1.15,1.15c.91,.81,1.2-.23,1.73-.58l1.73,1.73-1.15,1.15,1.15,1.15-1.73,1.73Z"/><path class="d" d="M11.19,25.58l.58-.58-.58-.58-.58,.58,.58,.58Z"/><path class="d" d="M25,8.32c.41-.38,.41-.77,0-1.15-.41,.38-.41,.77,0,1.15Z"/><path class="d" d="M25,41.68c-.41,.38-.41,.77,0,1.15,.41-.38,.41-.77,0-1.15Z"/><path class="d" d="M25,8.32l-1.15,1.15,1.15,1.15,1.15-1.15-1.15-1.15Z"/><path class="d" d="M25,41.68l1.15-1.15-1.15-1.15-1.15,1.15,1.15,1.15Z"/><path class="d" d="M25.58,38.81l-.58-.58-.58,.58,.58,.58,.58-.58Z"/><path class="d" d="M8.32,25l1.15,1.15,1.15-1.15-1.15-1.15-1.15,1.15Z"/><path class="d" d="M38.81,24.42l-.58,.58,.58,.58,.58-.58-.58-.58Z"/><path class="d" d="M41.68,25c.38,.41,.77,.41,1.15,0-.38-.41-.77-.41-1.15,0Z"/><path class="d" d="M39.38,25l1.15,1.15,1.15-1.15-1.15-1.15-1.15,1.15Z"/><path class="d" d="M24.42,11.19l.58,.58,.58-.58-.58-.58-.58,.58Z"/><path class="d" d="M8.32,25c-.38-.41-.77-.41-1.15,0,.38,.41,.77,.41,1.15,0Z"/></g></g><g><g><path class="d" d="M58.25,45.02V29.01h5.47c1.8,0,3.18,.36,4.12,1.09,.94,.73,1.41,1.81,1.41,3.24,0,.73-.2,1.39-.59,1.98-.39,.59-.97,1.04-1.73,1.36,.86,.24,1.53,.68,2,1.33s.71,1.43,.71,2.34c0,1.5-.48,2.66-1.44,3.46-.96,.81-2.34,1.21-4.12,1.21h-5.82Zm2.77-9.27h2.72c.86,0,1.54-.2,2.02-.59,.49-.39,.73-.95,.73-1.67,0-.79-.22-1.36-.67-1.72s-1.15-.53-2.1-.53h-2.69v4.5Zm0,2.05v5h3.08c.87,0,1.55-.22,2.04-.65,.49-.43,.73-1.03,.73-1.8,0-1.66-.85-2.51-2.54-2.55h-3.31Z"/><path class="d" d="M75.75,42.8h7.24v2.22h-10.01V29.01h2.77v13.79Z"/><path class="d" d="M97.97,37.43c0,1.57-.27,2.95-.81,4.13-.54,1.18-1.31,2.09-2.32,2.73-1,.63-2.16,.95-3.47,.95s-2.44-.32-3.46-.95c-1.01-.63-1.79-1.54-2.34-2.71-.55-1.17-.83-2.53-.84-4.06v-.9c0-1.56,.28-2.94,.83-4.14,.55-1.19,1.33-2.11,2.33-2.74,1-.63,2.16-.95,3.46-.95s2.45,.31,3.46,.94c1,.63,1.78,1.53,2.33,2.71s.83,2.55,.83,4.11v.89Zm-2.77-.84c0-1.77-.33-3.13-1-4.08s-1.62-1.42-2.84-1.42-2.13,.47-2.81,1.41c-.68,.94-1.02,2.28-1.04,4v.92c0,1.76,.34,3.12,1.02,4.08,.68,.96,1.63,1.44,2.84,1.44s2.17-.47,2.83-1.41c.66-.94,.99-2.31,.99-4.11v-.84Z"/><path class="d" d="M113.48,39.81c-.16,1.71-.79,3.04-1.88,4-1.1,.96-2.55,1.44-4.37,1.44-1.27,0-2.39-.3-3.36-.91-.97-.6-1.71-1.46-2.24-2.58-.53-1.11-.8-2.41-.82-3.88v-1.5c0-1.51,.27-2.84,.8-3.99,.53-1.15,1.3-2.04,2.29-2.66,1-.62,2.15-.93,3.46-.93,1.76,0,3.18,.48,4.25,1.44s1.7,2.31,1.87,4.06h-2.76c-.13-1.15-.47-1.98-1-2.49-.54-.51-1.32-.76-2.36-.76-1.21,0-2.13,.44-2.78,1.33-.65,.88-.98,2.18-.99,3.89v1.42c0,1.73,.31,3.05,.93,3.96,.62,.91,1.52,1.37,2.71,1.37,1.09,0,1.91-.25,2.45-.74,.55-.49,.89-1.31,1.04-2.45h2.76Z"/><path class="d" d="M121.17,38.11l-1.81,1.92v4.99h-2.77V29.01h2.77v7.51l1.53-1.9,4.67-5.61h3.35l-5.93,7.09,6.27,8.92h-3.29l-4.8-6.92Z"/><path class="d" d="M142.71,39.81c-.16,1.71-.79,3.04-1.88,4-1.1,.96-2.55,1.44-4.37,1.44-1.27,0-2.39-.3-3.36-.91-.97-.6-1.71-1.46-2.24-2.58-.53-1.11-.8-2.41-.82-3.88v-1.5c0-1.51,.27-2.84,.8-3.99,.53-1.15,1.3-2.04,2.29-2.66,1-.62,2.15-.93,3.46-.93,1.76,0,3.18,.48,4.25,1.44s1.7,2.31,1.87,4.06h-2.76c-.13-1.15-.47-1.98-1-2.49-.54-.51-1.32-.76-2.36-.76-1.21,0-2.13,.44-2.78,1.33-.65,.88-.98,2.18-.99,3.89v1.42c0,1.73,.31,3.05,.93,3.96,.62,.91,1.52,1.37,2.71,1.37,1.09,0,1.91-.25,2.45-.74,.55-.49,.89-1.31,1.04-2.45h2.76Z"/><path class="d" d="M158.49,45.02h-2.76v-7.11h-7.13v7.11h-2.77V29.01h2.77v6.67h7.13v-6.67h2.76v16.02Z"/><path class="d" d="M171.42,41.3h-6.18l-1.29,3.73h-2.88l6.03-16.02h2.49l6.04,16.02h-2.89l-1.3-3.73Zm-5.4-2.24h4.62l-2.31-6.64-2.31,6.64Z"/><path class="d" d="M181.01,45.02h-2.76V29.01h2.76v16.02Z"/><path class="d" d="M197.65,45.02h-2.77l-7.11-11.36v11.36h-2.77V29.01h2.77l7.13,11.41v-11.41h2.75v16.02Z"/><path class="d" d="M210.63,42.8h7.24v2.22h-10.01V29.01h2.77v13.79Z"/><path class="d" d="M230.24,41.3h-6.18l-1.29,3.73h-2.88l6.03-16.02h2.49l6.04,16.02h-2.89l-1.3-3.73Zm-5.4-2.24h4.62l-2.31-6.64-2.31,6.64Z"/><path class="d" d="M236.99,45.02V29.01h5.47c1.8,0,3.18,.36,4.12,1.09s1.41,1.81,1.41,3.24c0,.73-.2,1.39-.59,1.98-.39,.59-.97,1.04-1.73,1.36,.86,.24,1.53,.68,2,1.33s.71,1.43,.71,2.34c0,1.5-.48,2.66-1.44,3.46-.96,.81-2.34,1.21-4.12,1.21h-5.82Zm2.77-9.27h2.72c.86,0,1.54-.2,2.02-.59,.49-.39,.73-.95,.73-1.67,0-.79-.22-1.36-.67-1.72s-1.15-.53-2.1-.53h-2.69v4.5Zm0,2.05v5h3.08c.87,0,1.55-.22,2.04-.65,.49-.43,.73-1.03,.73-1.8,0-1.66-.85-2.51-2.54-2.55h-3.31Z"/><path class="d" d="M260.14,40.9c0-.7-.25-1.25-.74-1.63-.49-.38-1.38-.77-2.67-1.15-1.29-.39-2.31-.82-3.07-1.3-1.45-.92-2.18-2.11-2.18-3.59,0-1.29,.52-2.35,1.57-3.19,1.05-.84,2.41-1.25,4.08-1.25,1.11,0,2.1,.21,2.97,.62,.87,.41,1.55,1,2.05,1.75,.5,.76,.74,1.6,.74,2.52h-2.76c0-.84-.26-1.49-.78-1.96-.52-.47-1.27-.71-2.24-.71-.91,0-1.61,.19-2.11,.58-.5,.39-.75,.93-.75,1.63,0,.59,.27,1.08,.81,1.47,.54,.39,1.43,.77,2.67,1.14,1.24,.37,2.24,.79,2.99,1.26,.75,.47,1.3,1.02,1.65,1.63,.35,.61,.53,1.33,.53,2.15,0,1.34-.51,2.4-1.53,3.18-1.02,.79-2.4,1.18-4.15,1.18-1.15,0-2.21-.21-3.18-.64-.97-.43-1.72-1.02-2.26-1.78-.54-.75-.81-1.63-.81-2.64h2.77c0,.91,.3,1.61,.9,2.11,.6,.5,1.46,.75,2.57,.75,.96,0,1.69-.2,2.17-.59,.49-.39,.73-.91,.73-1.56Z"/></g><g><path class="d" d="M55.54,5.06h3.98l1.03,7.51c.23,1.74,.43,3.45,.6,5.24h.1c.3-1.79,.63-3.53,.96-5.24l1.71-7.51h3.38l1.66,7.51c.33,1.66,.66,3.43,.96,5.24h.1c.18-1.81,.4-3.55,.6-5.24l1.11-7.51h3.73l-2.9,16.41h-4.97l-1.49-7.18c-.28-1.29-.45-2.57-.6-3.88h-.1c-.18,1.31-.35,2.6-.63,3.88l-1.41,7.18h-4.89l-2.95-16.41Z"/><path class="d" d="M76.4,13.2c0-5.39,3.05-8.44,7.51-8.44s7.51,3.07,7.51,8.44-3.05,8.57-7.51,8.57-7.51-3.2-7.51-8.57Zm11.01,0c0-3.2-1.34-5.07-3.5-5.07s-3.5,1.86-3.5,5.07,1.36,5.19,3.5,5.19,3.5-2.02,3.5-5.19Z"/><path class="d" d="M94,5.06h3.93v13.13h6.38v3.28h-10.31V5.06Z"/><path class="d" d="M106.46,5.06h10.48v3.28h-6.55v3.58h5.6v3.28h-5.6v6.28h-3.93V5.06Z"/><path class="d" d="M119.23,5.06h6.02c3.48,0,6.4,1.21,6.4,5.17,0,2.39-1.13,3.93-2.82,4.74l3.65,6.5h-4.39l-3.02-5.77h-1.92v5.77h-3.93V5.06Zm5.72,7.54c1.86,0,2.87-.81,2.87-2.37s-1.01-2.07-2.87-2.07h-1.79v4.44h1.79Z"/><path class="d" d="M138.58,5.06h4.69l5.12,16.41h-4.13l-.96-3.78h-4.86l-.96,3.78h-4.01l5.12-16.41Zm.6,9.6h3.35l-.35-1.41c-.43-1.61-.86-3.55-1.29-5.27h-.1c-.4,1.71-.83,3.65-1.26,5.27l-.35,1.41Z"/><path class="d" d="M149.85,5.06h4.28l2.6,7.13c.3,.96,.58,1.94,.88,2.97h.1c.3-1.03,.55-2.02,.88-2.97l2.5-7.13h4.28V21.47h-3.55v-5.7c0-1.61,.33-4.41,.53-6.02h-.1l-1.36,4.28-2.22,6.05h-2.22l-2.19-6.05-1.31-4.28h-.1c.2,1.61,.53,4.41,.53,6.02v5.7h-3.53V5.06Z"/></g></g></g></g></g></svg>