<svg xmlns="http://www.w3.org/2000/svg" viewBox="0 0 1916.38 414.63"><defs><style>.a,.b{fill:#474a46;}.b{fill-rule:evenodd;}</style></defs><path class="a" d="M455.08,223.51c0,54.28,35,90.07,79.06,90.07,27.53,0,47.2-13,57.82-28.32v25.57H636V137.37H592v24.78c-10.23-14.55-29.5-27.53-57.43-27.53C490.48,134.62,455.08,169.23,455.08,223.51ZM592,224.3c0,33-22,51.13-46,51.13-23.6,0-45.63-18.88-45.63-51.53s22.42-50.34,45.63-50.34C569.93,173.16,592,191.26,592,224.3Z"/><rect class="a" x="672.51" y="79.16" width="44.05" height="232.07"/><path class="a" d="M828.2,170.41c22.42,0,40.91,14.55,41.3,37.37H786.9C790.44,184.18,807,170.41,828.2,170.41Zm82.21,86.14h-47.2C857.7,268,847.08,277.4,828.59,277.4c-22,0-39.33-14.56-41.69-40.12H914a121.83,121.83,0,0,0,1.18-16.92c0-51.52-35.4-85.74-85.35-85.74-51.53,0-86.93,34.61-86.93,89.68,0,54.67,36.58,89.68,86.92,89.68C872.26,313.58,901,288.41,910.41,256.55Z"/><path class="a" d="M984.63,162.54V137.37H940.57V393.83h44.06V286.05c10.62,14.16,29.89,27.53,57.43,27.53,44.44,0,79.45-36.18,79.45-90.07s-34.61-88.89-79.45-88.89C1014.92,134.62,994.86,147.6,984.63,162.54Zm91.65,61c0,33-22.42,51.53-46,51.53s-45.63-18.1-45.63-51.14,22.42-51.13,45.63-51.13C1053.86,173.16,1076.28,190.47,1076.28,223.51Z"/><path class="a" d="M1147,310.83h44.06v-96c0-27.93,15.34-42.88,39.33-42.88,23.21,0,38.55,15,38.55,42.88v96h44V209c0-48-28.32-74.34-67.65-74.34-23.21,0-42.48,9.44-53.89,24V79.16h-44V310.83Z"/><rect class="a" x="1347.66" y="137.37" width="44.05" height="173.46"/><path class="a" d="M1592.22,137.37h-44V233c0,27.93-15,42.87-38.94,42.87-23.21,0-38.55-14.94-38.55-42.87V137.37h-44V239.24c0,47.6,29.1,73.95,69.62,73.95,21.63,0,40.91-9.44,51.53-24v22h44V137.37Z"/><path class="a" d="M1872.32,310.83h44.06V209c0-48-29.5-74.34-71.2-74.34-25.56,0-48.38,13.37-59.39,33-11.8-21.64-34.22-33-61-33-21.63,0-40.12,9-51.13,23.6V137.37h-44.06V310.83h44.06v-96c0-27.54,15.34-42.09,39.33-42.09,23.21,0,38.55,14.55,38.55,42.09v96h44v-96c0-27.54,15.34-42.09,38.94-42.09,23.21,0,38.55,14.55,38.55,42.09v96Z"/><path class="b" d="M1392.12,64.76a5.17,5.17,0,0,0-6.21-5.34l-32.1,5.66a7.89,7.89,0,0,0-6.27,7.54v40a5.18,5.18,0,0,0,6.27,5.33l32.1-5.66a7.89,7.89,0,0,0,6.21-7.53Z"/><path class="b" d="M81.6,273.53a7.85,7.85,0,0,0-9.48-8.07L9.48,276.51A12,12,0,0,0,0,287.92V406.41c0,5.38,4.24,9,9.48,8.07l62.64-11A12,12,0,0,0,81.6,392Z"/><path class="b" d="M244.77,8.21A7.85,7.85,0,0,0,235.28.14l-62.64,11a12,12,0,0,0-9.48,11.41V141.09c0,5.38,4.25,9,9.48,8.07l62.64-11a12,12,0,0,0,9.49-11.42Z"/><path class="b" d="M91.78,35.87C89.36,30.54,82.86,27,77.24,28L10.13,39.85c-5.62,1-8.2,6.11-5.78,11.44L153,378.71c2.42,5.33,8.93,8.87,14.55,7.88l67.11-11.84c5.62-1,8.19-6.13,5.77-11.46Z"/></svg>