<svg xmlns="http://www.w3.org/2000/svg" viewBox="0 0 373.04 87.76"><defs><style>.a{fill:#474a46;}</style></defs><path class="a" d="M243.23,20.67h2.45V66.93h-2.45Z"/><path class="a" d="M7.49,3.31a3.92,3.92,0,1,0-.1,1.16C34.6,4.7,56.84,20.8,58.61,41.05a51.11,51.11,0,0,0-8.67-12C43.46,22.38,32,14.41,14.27,14.41a.45.45,0,0,0-.2,0,3.73,3.73,0,1,0,0,1.1l.18,0c17.32,0,28.48,7.76,34.8,14.26A50.89,50.89,0,0,1,57.25,41a73.16,73.16,0,0,0-8.69-6.69c-6.31-4.13-16.16-9-27.22-9.07a3.76,3.76,0,1,0,0,1.17c16.53,0,30.54,11.27,35.57,15.85-5.57-2-18.89-6.39-28.85-6.58a3.73,3.73,0,1,0-3.71,4,3.82,3.82,0,0,0,3.62-3c9.85.17,23.13,4.62,28.62,6.43H37.31A3.68,3.68,0,0,0,33.61,40a3.78,3.78,0,0,0-3.73,3.78,3.72,3.72,0,0,0,7.38.61h19C50.66,46.77,37.65,50.72,28,50.88a3.69,3.69,0,0,0-3.62-2.82,3.75,3.75,0,1,0,3.71,4.06c10-.19,23.28-4.58,28.85-6.58-5,4.59-19,15.83-35.57,15.86a3.7,3.7,0,1,0,0,1.17c11.07,0,20.91-4.94,27.22-9.07a74.45,74.45,0,0,0,8.8-6.78A50.55,50.55,0,0,1,49.11,58c-6.32,6.52-17.5,14.3-34.83,14.3a.41.41,0,0,0-.16,0,3.74,3.74,0,1,0,0,1.1.52.52,0,0,0,.21,0c17.74,0,29.19-8,35.67-14.65A51.16,51.16,0,0,0,58.55,47C56.31,66.9,34.2,82.64,7.24,82.82A3.69,3.69,0,1,0,7.46,84s.08,0,.08,0C36.32,83.71,59.43,66,60,44.1v-.45C60,21.56,36.48,3.57,7.49,3.31Zm-1.23.83a2.54,2.54,0,1,1,0-.56.51.51,0,0,0-.1.3A.59.59,0,0,0,6.26,4.14ZM10.4,17.62A2.56,2.56,0,1,1,13,15.06,2.56,2.56,0,0,1,10.4,17.62Zm7.26,10.74a2.56,2.56,0,1,1,2.56-2.56A2.56,2.56,0,0,1,17.66,28.36Zm9.19,8.1a2.56,2.56,0,1,1,0-.54.57.57,0,0,0-.09.32A.43.43,0,0,0,26.85,36.46Zm6.77,9.89a2.56,2.56,0,1,1,2.56-2.56A2.56,2.56,0,0,1,33.62,46.35Zm-9.29,8a2.56,2.56,0,1,1,2.51-3.06.59.59,0,0,0-.05.23.57.57,0,0,0,.09.32A2.55,2.55,0,0,1,24.33,54.38ZM17.66,64.54A2.56,2.56,0,1,1,20.22,62,2.56,2.56,0,0,1,17.66,64.54ZM10.4,75.28A2.56,2.56,0,1,1,13,72.72,2.56,2.56,0,0,1,10.4,75.28ZM3.73,86.6A2.56,2.56,0,1,1,6.2,83.37v0a.6.6,0,0,0,.07.27,2.19,2.19,0,0,1,0,.36A2.58,2.58,0,0,1,3.73,86.6Z"/><path class="a" d="M61.69,44.11C62.29,66,85.39,83.7,114.17,84c0,0,0,0,0,0a3.64,3.64,0,1,0,.18-1.22C87.36,82.63,65.24,66.89,63,47a51.38,51.38,0,0,0,8.6,11.86c6.48,6.68,17.92,14.65,35.67,14.65a.65.65,0,0,0,.21,0,3.72,3.72,0,1,0,0-1.1l-.16,0C90,72.29,78.78,64.51,72.46,58a50.55,50.55,0,0,1-8.25-11.31A70.8,70.8,0,0,0,73,53.46c6.31,4.13,16.16,9,27.22,9.07a3.75,3.75,0,1,0,0-1.18c-16.55,0-30.55-11.24-35.58-15.83,5.57,2,18.89,6.38,28.85,6.58a3.72,3.72,0,0,0,7.43-.33A3.76,3.76,0,0,0,97.22,48a3.72,3.72,0,0,0-3.62,2.86c-9.69-.16-22.71-4.11-28.34-6.52h19a3.72,3.72,0,0,0,7.38-.61A3.76,3.76,0,0,0,87.93,40a3.66,3.66,0,0,0-3.7,3.17H65c5.48-1.81,18.77-6.27,28.61-6.43a3.85,3.85,0,0,0,3.62,3,3.74,3.74,0,1,0-3.71-4c-10,.19-23.28,4.58-28.85,6.58,5-4.59,19-15.83,35.57-15.86a3.7,3.7,0,1,0,0-1.17c-11.06,0-20.91,4.93-27.22,9.06A73.16,73.16,0,0,0,64.31,41a50.33,50.33,0,0,1,8.18-11.15c6.32-6.51,17.49-14.26,34.8-14.26l.18,0a3.73,3.73,0,1,0,0-1.1.65.65,0,0,0-.2,0c-17.74,0-29.19,8-35.67,14.65A51.11,51.11,0,0,0,63,41C64.71,20.79,87,4.7,114.18,4.46A3.73,3.73,0,1,0,117.84,0a3.66,3.66,0,0,0-3.63,3.3c-29,.27-52.52,18.28-52.52,40.36Zm53.61-40a.55.55,0,0,0,.06-.26.56.56,0,0,0-.09-.31,2.57,2.57,0,1,1,0,.57Zm-6.71,10.91a2.56,2.56,0,1,1,2.56,2.56A2.56,2.56,0,0,1,108.59,15.05Zm-7.25,10.74a2.56,2.56,0,1,1,2.56,2.56A2.56,2.56,0,0,1,101.34,25.79Zm-16,18a2.56,2.56,0,1,1,2.56,2.56A2.56,2.56,0,0,1,85.37,43.79Zm16,18.18a2.56,2.56,0,1,1,2.56,2.56A2.56,2.56,0,0,1,101.34,62Zm7.25,10.74a2.56,2.56,0,1,1,2.56,2.56A2.56,2.56,0,0,1,108.59,72.71ZM115.27,84a2.19,2.19,0,0,1,0-.36.6.6,0,0,0,.07-.27.09.09,0,0,0,0-.05,2.56,2.56,0,1,1-.09.68ZM94.71,36.46a.59.59,0,0,0,.05-.23.58.58,0,0,0-.1-.32,2.55,2.55,0,1,1,0,.55Zm0,15.4a.58.58,0,0,0,.1-.32.59.59,0,0,0-.05-.23,2.56,2.56,0,1,1,0,.55Z"/><path class="a" d="M145.38,33.68h2.45V54.1h-2.45Z"/><path class="a" d="M168.24,50.3l.09,0a4.84,4.84,0,0,1-.2-1.4V33.67h2.45V54.09h-2.45L157.46,37.7l-.09,0a4.84,4.84,0,0,1,.2,1.4v15h-2.45V33.68h2.45Z"/><path class="a" d="M180.32,45.92v8.17h-2.45V33.68h10.79a2.18,2.18,0,0,1,1.4.58l.7.58a1.81,1.81,0,0,1,.7,1.46v7a1.82,1.82,0,0,1-.7,1.46l-.7.58a2.18,2.18,0,0,1-1.4.58Zm0-10.2v8.17h7.26a3.1,3.1,0,0,0,.67,0,1.42,1.42,0,0,0,.41-.25.88.88,0,0,0,.31-.34,2.32,2.32,0,0,0,0-.57V36.91a2.32,2.32,0,0,0,0-.57.81.81,0,0,0-.31-.33,1.3,1.3,0,0,0-.41-.25,3.1,3.1,0,0,0-.67,0Z"/><path class="a" d="M211.09,33.68h2.45V51.47a1.82,1.82,0,0,1-.7,1.46l-.7.58a2.18,2.18,0,0,1-1.4.58h-9.92a2.18,2.18,0,0,1-1.4-.58l-.7-.58a1.82,1.82,0,0,1-.7-1.46V33.68h2.45V50.86a2.32,2.32,0,0,0,0,.57.88.88,0,0,0,.31.34,1.3,1.3,0,0,0,.41.25,3.1,3.1,0,0,0,.67,0h7.76a3.1,3.1,0,0,0,.67,0,1.42,1.42,0,0,0,.41-.25,1,1,0,0,0,.31-.34,2.32,2.32,0,0,0,0-.57Z"/><path class="a" d="M217.74,33.68h15.4v2h-6.48V54.09h-2.45V35.72h-6.47Z"/><path class="a" d="M257.66,33.68h10.68a2.18,2.18,0,0,1,1.4.58l.7.58a1.81,1.81,0,0,1,.7,1.46V51.47a1.82,1.82,0,0,1-.7,1.46l-.7.58a2.18,2.18,0,0,1-1.4.58H257.66a2.18,2.18,0,0,1-1.4-.58l-.7-.58a1.82,1.82,0,0,1-.7-1.46V36.3a1.82,1.82,0,0,1,.7-1.46l.7-.58A2.18,2.18,0,0,1,257.66,33.68Zm11,17.17V36.91a2.32,2.32,0,0,0,0-.57.84.84,0,0,0-.3-.33,1.42,1.42,0,0,0-.41-.25,3.1,3.1,0,0,0-.67,0h-8.52a3.1,3.1,0,0,0-.67,0,1.42,1.42,0,0,0-.41.25,1.07,1.07,0,0,0-.31.33,2.32,2.32,0,0,0,0,.57V50.85a3,3,0,0,0,0,.57.88.88,0,0,0,.31.34,1.42,1.42,0,0,0,.41.25,3.1,3.1,0,0,0,.67,0h8.52a3.1,3.1,0,0,0,.67,0,1.42,1.42,0,0,0,.41-.25c.17-.14.28-.25.3-.34A2.91,2.91,0,0,0,268.69,50.85Z"/><path class="a" d="M291.49,33.68h2.45V51.47a1.82,1.82,0,0,1-.7,1.46l-.7.58a2.18,2.18,0,0,1-1.4.58h-9.92a2.18,2.18,0,0,1-1.4-.58l-.7-.58a1.82,1.82,0,0,1-.7-1.46V33.68h2.45V50.86a3,3,0,0,0,0,.57.88.88,0,0,0,.31.34,1.3,1.3,0,0,0,.41.25,3.1,3.1,0,0,0,.67,0h7.76a3.1,3.1,0,0,0,.67,0,1.42,1.42,0,0,0,.41-.25c.17-.14.28-.25.3-.34a2.32,2.32,0,0,0,0-.57V33.68Z"/><path class="a" d="M298.14,33.68h15.4v2h-6.48V54.09h-2.45V35.72h-6.47v-2Z"/><path class="a" d="M320.22,45.92v8.17h-2.45V33.68h10.79a2.18,2.18,0,0,1,1.4.58l.7.58a1.81,1.81,0,0,1,.7,1.46v7a1.82,1.82,0,0,1-.7,1.46l-.7.58a2.18,2.18,0,0,1-1.4.58Zm0-10.2v8.17h7.26a3.1,3.1,0,0,0,.67,0,1.42,1.42,0,0,0,.41-.25.88.88,0,0,0,.31-.34,2.32,2.32,0,0,0,0-.57V36.91a2.32,2.32,0,0,0,0-.57.81.81,0,0,0-.31-.33,1.3,1.3,0,0,0-.41-.25,3.1,3.1,0,0,0-.67,0Z"/><path class="a" d="M351,33.68h2.45V51.47a1.82,1.82,0,0,1-.7,1.46l-.7.58a2.18,2.18,0,0,1-1.4.58h-9.92a2.18,2.18,0,0,1-1.4-.58l-.7-.58a1.82,1.82,0,0,1-.7-1.46V33.68h2.45V50.86a3,3,0,0,0,0,.57.88.88,0,0,0,.31.34,1.42,1.42,0,0,0,.41.25,3.1,3.1,0,0,0,.67,0h7.76a3.1,3.1,0,0,0,.67,0,1.42,1.42,0,0,0,.41-.25.88.88,0,0,0,.31-.34,2.32,2.32,0,0,0,0-.57V33.68Z"/><path class="a" d="M357.64,33.68H373v2h-6.47V54.09h-2.45V35.72h-6.48v-2Z"/></svg>